<?xml version="1.0" encoding="UTF-8"?><svg id="Layer_1" xmlns="http://www.w3.org/2000/svg" viewBox="0 0 2000 800"><defs><style>.cls-1{fill:#fff;}</style></defs><path class="cls-1" d="M150.069,392.006c33.995,62.449,95.977,77.956,128.96,78.748l65.814-47.554,14.833,19.974-167.952,147.411h-15.978L3.417,473.173V131.942L239.083,.558l120.975,97.007-108.419,82.169-101.57-84.45V392.006h0Z"/><path class="cls-1" d="M518.15,737.326c-30.741,0-61.523,9.98-86.064,28.545l-16.408-10.938c25.414-67.499,92.851-125.939,181.668-125.939,52.546,0,104.826,22.236,141.097,60.297,24.574-2.567,41.597-22.918,41.597-50.021,0-47.679-29.103-51.721-37.737-122.999l-107.803,74.547-164.115-114.881V155.887l-41.893-49.754-45.636,28.239-16.413-21.882L519.62,8.547l87.529,103.943V404.815l133.031,83.21c-.162-4.586-.248-9.388-.262-14.418l-.821-317.721-61.384-72.959L787.887,8.151l103.727,122.708-.005,301.308c0,94.22,32.769,93.514,32.769,136.038,0,50.026-48.518,61.829-78.327,82.867l-211.034,148.928c-24.307-36.314-63.361-62.674-116.866-62.674h0Z"/><path class="cls-1" d="M1184.623,89.767v21.124L1328.416,3.412l110.442,97.089,34.764-28.191,20.131,24.818-42.653,34.587V449.641c-68.181,37.99-131.752,82.48-189.443,131.814-24.254-14.217-49.945-27.318-77.034-38.963v52.088c0,43.998,14.542,74.376,52.494,80.022v16.413l-163.198,98.148h-21.878V500.799c-19.033-3.928-38.563-7.121-58.579-9.502l58.579-49.539V156.91c0-18.26-9.884-49.688-44.795-49.688-9.22,0-18.418,2.911-25.958,8.223l-12.17-17.878L1107.589,4.746c32.281,20.708,59.17,50.016,77.034,85.023v-.002Zm0,367.9c42.752,16.809,84.428,34.911,124.966,54.169V172.887l-75.326-62.197-49.64,37.766V457.667Z"/><path class="cls-1" d="M1516.929,488.502l58.422-47.378V147.702L1832.464,0l164.119,125.82V437.641l-251.644,153.176-160.459-115.954-47.425,38.462-20.126-24.822h0Zm337.417,14.784V175.053l-131.294-87.529V415.759l131.294,87.529Z"/></svg>