<?xml version="1.0" encoding="UTF-8"?><svg id="Layer_1" xmlns="http://www.w3.org/2000/svg" viewBox="0 0 2000 2000"><path d="M1000.239,1527.203c127.436-.002,254.872-.009,382.309,.017,7.491,.002,15.062-.378,22.459,.532,23.201,2.854,39.586,20.422,39.527,41.682-.059,21.295-16.599,38.788-39.736,41.476-6.667,.775-13.475,.424-20.219,.425-256.372,.017-512.744,.014-769.115,.014-2.249,0-4.498,.017-6.747-.006-32.848-.334-53.006-16.388-52.918-42.139,.087-25.778,20.124-41.915,53.137-41.948,130.435-.129,260.869-.053,391.304-.054Z"/><path d="M1000.689,972.527c131.92,.002,263.84-.111,395.76,.078,35.042,.05,57.632,26.572,44.318,54.526-5.509,11.567-20.201,19.81-32.329,26.745-6.312,3.61-16.131,1.304-24.366,1.305-255.595,.038-511.19,.037-766.785,.025-42.038-.002-61.888-13.584-61.372-41.881,.514-28.214,19.786-40.798,62.506-40.799,127.423-.003,254.845,0,382.268,.001Z"/><path d="M999.541,1332.973c-131.921-.002-263.841,.084-395.762-.065-31.334-.035-51.322-19.619-47.257-46.265,3.029-19.856,14.495-32.593,34.981-35.473,7.374-1.037,14.951-.847,22.436-.849,257.095-.038,514.191-.041,771.286-.023,39.507,.003,59.714,14.372,59.248,41.957-.456,26.984-20.036,40.714-58.164,40.716-128.922,.01-257.845,.004-386.767,.002Z"/><path d="M1182.134,694.15c68.196,0,136.392-.032,204.588,.046,7.472,.009,15.102-.203,22.385,1.155,20.812,3.88,35.272,20.913,35.423,40.642,.149,19.599-14.286,36.876-34.961,40.962-6.539,1.292-13.403,1.286-20.118,1.289-139.389,.068-278.779,.096-418.168-.057-8.15-.009-16.618-.491-24.385-2.698-18.681-5.308-28.76-18.46-29.276-37.881-.541-20.399,9.296-34.582,28.847-40.456,8.402-2.524,17.691-2.853,26.581-2.88,69.694-.218,139.389-.121,209.084-.121Z"/><path d="M569.47,1999.452v-.055h29.927c364.584,0,729.168,.009,1093.752-.007,82.993-.004,126.107-43.073,126.11-126.018,.018-484.57,.009-969.14,.01-1453.71,0-9.526,0-19.053,0-31.059h.117v-84.765l-.127-.035c0-7.735,0-16.387,0-25.039,0-47.241,.001-94.482,0-141.723-.003-79.628-17.618-106.338-90.15-136.701H734.17c-27.514,8.966-56.673,14.714-82.125,27.716-31.654,16.169-63.497,34.764-89.581,58.54-98.639,89.91-195.353,181.949-292.042,273.974-58.743,55.91-89.367,125.497-89.467,206.528-.537,436.452-.29,872.905-.25,1309.358,.007,77.948,44.914,122.811,122.684,122.939,52.15,.085,104.3,.154,156.449,.265v-.208h109.632ZM650.177,117.494c1.573,9.49,2.786,13.417,2.792,17.346,.107,79.512,.418,159.025-.074,238.534-.244,39.446-27.843,70.36-66.687,70.932-91.378,1.345-182.79,.431-274.188,.431-1.145-1.92-2.289-3.84-3.434-5.76,112.718-106.083,225.437-212.166,341.591-321.483ZM264.536,1873.075c-.015-434.269-.001-868.538,.047-1302.807,.005-42.677,.135-42.677,41.934-42.678,90.011-.001,180.023,.218,270.034-.064,94.258-.295,158.402-63.17,159.442-157.518,.935-84.743,.221-169.505,.234-254.259,.001-8.872,0-17.743,0-29.535,16.1-.896,28.765-2.211,41.43-2.216,304.539-.115,609.079-.1,913.619-.075,38.564,.003,44.908,6.168,44.91,44.079,.033,581.275,.031,1162.551,.002,1743.826-.002,37.51-7.439,45.042-44.552,45.044-461.31,.034-922.62,.037-1383.93-.007-35.727-.003-43.168-7.612-43.169-43.792Z"/></svg>