<?xml version="1.0" encoding="UTF-8"?><svg id="Layer_1" xmlns="http://www.w3.org/2000/svg" viewBox="0 0 2000 2000"><defs><style>.cls-1{fill:#fff;}</style></defs><path class="cls-1" d="M1695.963,369.121c-130.414-59.337-269.306-103.028-413.411-127.155-18.26,31.302-38.478,73.684-52.822,106.941-153.888-22.168-306.471-22.168-457.756,0-14.344-33.256-35.214-75.639-52.822-106.941-145.411,24.126-283.642,67.818-413.403,127.155C44.268,755.147-26.814,1132.046,8.401,1504.381c174.098,126.502,341.685,202.793,506.661,253.653,40.428-54.772,76.94-113.46,108.238-174.755-59.333-22.168-116.071-49.558-170.835-82.162,14.344-9.779,28.035-20.867,41.726-31.951,329.299,150.628,685.981,150.628,1011.364,0,14.344,11.084,27.39,22.172,41.734,31.951-54.772,32.604-111.502,59.993-170.842,82.162,31.298,61.295,67.818,119.983,108.246,174.755,164.315-50.86,333.208-127.151,506-253.653,43.7-430.37-68.463-804.658-294.73-1135.259ZM668.95,1274.85c-99.116,0-179.972-89.986-179.972-200.187s78.906-200.187,179.972-200.187c99.761,0,181.923,89.986,179.972,200.187,0,110.2-80.212,200.187-179.972,200.187Zm663.813,0c-99.116,0-179.972-89.986-179.972-200.187s78.898-200.187,179.972-200.187c100.414,0,181.923,89.986,179.972,200.187,0,110.2-78.906,200.187-179.972,200.187Z"/></svg>