<?xml version="1.0" encoding="UTF-8"?><svg id="Layer_1" xmlns="http://www.w3.org/2000/svg" viewBox="0 0 48 48"><defs><style>.cls-1{fill:#fff;}</style></defs><path class="cls-1" d="M3.6,43.2c-.96,0-1.8-.36-2.52-1.08-.72-.72-1.08-1.56-1.08-2.52V8.4c0-.96,.36-1.8,1.08-2.52,.72-.72,1.56-1.08,2.52-1.08H44.4c.96,0,1.8,.36,2.52,1.08,.72,.72,1.08,1.56,1.08,2.52v31.2c0,.96-.36,1.8-1.08,2.52-.72,.72-1.56,1.08-2.52,1.08H3.6ZM24,25.08L3.6,11.7v27.9H44.4V11.7l-20.4,13.38Zm0-3.6l20.16-13.08H3.9l20.1,13.08ZM3.6,11.7v0Z"/></svg>