<?xml version="1.0" encoding="UTF-8"?><svg id="Layer_1" xmlns="http://www.w3.org/2000/svg" viewBox="0 0 3206 936"><defs><style>.cls-1{fill:#fff;}</style></defs><path class="cls-1" d="M3205.961,485.946v32.322H1651.032c-.471-9.736-.966-19.96-1.564-32.322h1556.493Z"/><path class="cls-1" d="M273.249,397.394c-5.419,56.783-9.484,60.699-44.094,38.633-20.872,24.955-42.903,49.9-62.939,76.358-4.319,5.704-3.106,17.17-1.554,25.441,4.167,22.19,8.635,44.494,15.565,65.919,3.268,10.105,12.451,18.297,18.954,27.356,8.401-6.079,16.938-11.981,25.133-18.326,3.018-2.337,5.231-5.717,16.483-9.224,.444,8.038,4.413,19,.644,23.547-9.803,11.827-21.599,23.657-35.134,30.396-30.08,14.977-55.064,3.853-65.325-27.761-6.341-19.536-9.889-39.978-14.983-61.23-40.281,31.193-49.477,106.645-125.962,91.266,2.604-14.178,2.864-27.486,7.983-38.545,2.637-5.699,18.976-11.914,20.512-10.197,14.319,16.013,22.848,3.331,30.741-5.599,17.61-19.924,34.852-40.272,50.691-61.6,4.555-6.132,6.364-16.64,5.02-24.375-3.858-22.216-9.31-44.224-15.356-65.976-9.23-33.209-18.548-35.075-42.939-11.687-5.405,5.183-15.305,5.677-24.767,4.005,15.676-30.003,34.465-55.015,70.176-50.135,51.124,6.986,34.966,56.759,52.101,86.409,37.02-30.63,47.679-98.354,119.047-84.674h.001Z"/><path class="cls-1" d="M2788.756,327.541c32.641-113.307,63.349-219.899,94.357-327.541h313.546c4.067,22.261,4.07,22.873-16.636,22.954-72.949,.289-145.899,.062-218.847,.141-40.374,.043-66.072,19.019-77.095,56.926-27.027,93.433-53.658,186.983-81.286,280.237-2.602,8.785-11.121,15.819-16.891,23.665-6.997-6.959-16.526-12.695-20.574-21.079-23.913-49.523-46.552-99.663-68.73-147.667-13.981,2.216-25.727,4.076-37.473,5.938-.843-3.919-1.687-7.837-2.53-11.757,20.001-9.391,40.002-18.782,64.056-30.077,21.954,47.794,43.404,94.488,68.102,148.258h0Z"/><path class="cls-1" d="M2929.17,336.487c9.211-20.612,18.746-36.026,23.079-52.786,11.77-45.528,22.733-91.376,31.049-137.63,3.076-17.108-2.128-35.705-4.157-61.168,40.172,3.143,87.911,2.655,133.733,11.786,37.429,7.457,53.923,40.367,57.261,77.488,7.733,86.007-55.922,158.703-142.272,162.091-33.797,1.327-67.689,.217-98.693,.217h0Zm57.475-19.137c45.497,2.684,84.907-4.055,111.382-42.272,28.328-40.892,38.518-86.103,19.981-133.812-9.414-24.229-50.593-41.921-75.059-34.633-5.18,1.543-11.403,7.989-12.601,13.218-14.853,64.789-28.863,129.771-43.703,197.499h0Z"/><path class="cls-1" d="M1958.413,336.949c15.17-69.433,30.249-138.281,45.242-207.147,7.389-33.938,6.843-35.572-19.528-57.244h70.906c-7.248,33.004-14.507,66.058-23.058,104.995,15.802-11.913,26.23-21.528,38.205-28.474,36.582-21.216,68.889-6.763,78.318,34.145,18.161,78.789-41.021,162.083-113.595,159.3-24.152-.927-48.242-3.464-76.492-5.575h.001Zm51.268-41.708c2.964,5.132,7.375,22.231,14.922,23.75,13.435,2.702,32.408,.543,42.647-7.627,35.94-28.678,44.856-70.679,42.14-113.812-2.154-34.191-23.483-41.623-50.076-19.613-34.225,28.326-43.696,68.221-49.631,117.302h-.001Z"/><path class="cls-1" d="M2598.007,916.496c19.771-12.815,31.563-20.459,47.854-31.016,.955,8.125,4.548,16.892,1.893,19.655-17.324,18.028-37.443,36.571-63.903,27.576-12.16-4.134-19.628-22.063-29.972-34.647-8.053,6.673-20.166,19.522-34.747,28.244-37.622,22.505-76.15,4.284-80.937-38.805-5.503-49.529,6.249-95.917,45.818-127.882,18.295-14.779,45.045-22.458,69.026-25.865,23.072-3.276,47.516,3.115,75.47,5.629-4.181,54.177-31.333,109.354-30.501,177.11h-.002Zm-127.457-53.286c10.194,18.365,14.888,38.698,26.128,43.409,9.422,3.947,32.375-6.659,39.01-17.276,16.764-26.831,30.576-56.434,39.687-86.699,4.076-13.541-.744-37.952-10.693-45.778-19.307-15.189-42.486-2.112-53.096,15.583-16.699,27.849-27.258,59.38-41.036,90.763h0Z"/><path class="cls-1" d="M643.139,738.725c46.193-2.062,87.798,11.323,120.78-30.994,1.462,3.46,2.923,6.922,4.385,10.383-1.454,16.246-2.907,32.492-4.407,49.256h-171.292c12.988-21.244,21.682-39.701,34.221-55.011,20.558-25.1,44.201-47.649,65.356-72.293,10.11-11.776,20.477-24.859,25.42-39.181,7.395-21.43,6.318-44.177-17.162-56.699-23.263-12.406-42.897-4.828-60.538,14.017-7.792,8.323-19.7,12.795-30.949,19.765-13.127-32.815-2.254-46.478,22.925-50.564,21.267-3.452,42.732-6.599,64.214-7.591,26.1-1.206,50.661,6.478,61.664,31.946,11.152,25.813,8.02,52.841-11.561,74.614-28.968,32.21-59.276,63.214-88.934,94.806-3.327,3.543-6.135,7.575-14.122,17.546h0Z"/><path class="cls-1" d="M2255.009,898.329c45.647-2.249,87.632,13.015,120.925-34.568v63.292h-172.206c15.873-24.675,26.998-45.893,41.836-64.085,20.493-25.125,45.09-46.923,65.316-72.234,9.866-12.345,16.639-28.858,19.733-44.489,3.847-19.432-1.741-41.334-24.232-43.487-17.031-1.63-35.767,7.029-52.63,13.861-10.818,4.384-19.609,13.768-31.592,22.593-12.874-31.041-6.506-47.021,19.996-51.569,22.16-3.803,44.603-6.932,67.03-7.956,24.981-1.141,48.218,6.844,59.54,30.591,12.339,25.88,8.945,52.805-10.301,74.581-28.005,31.687-57.875,61.723-86.807,92.596-4.526,4.83-8.298,10.366-16.608,20.871v.002Z"/><path class="cls-1" d="M365.587,561.584c-22.748,10.926-39.04,18.751-59.856,28.749-.61-8.234-3.857-19.786-1.216-21.342,31.537-18.577,63.95-35.667,102.407-56.555,0,68.708-.007,128.369,.002,188.029,.007,41.995,.068,41.737,41.637,50.019,6.285,1.252,11.833,6.198,17.722,9.435-.878,2.294-1.755,4.588-2.632,6.883h-154.435c-1.009-2.948-2.019-5.896-3.027-8.844,8.506-3.2,16.851-8.536,25.551-9.196,25.419-1.93,35.665-12.832,34.432-39.649-2.117-46.029-.585-92.225-.585-147.53h.001Z"/><path class="cls-1" d="M1340.566,544.768v33.085h-327.031v-33.085h327.031Z"/><path class="cls-1" d="M1014.323,426.085h325.91v33.381h-325.91v-33.381Z"/><path class="cls-1" d="M2434.638,321.231c-22.583,7.289-30.594,1.964-30.059-17.347,.812-29.34,.212-58.718,.212-91.429-31.355,0-59.625,.954-87.748-.663-7.131-.41-13.79-9.006-20.666-13.841,1.54-3.062,3.08-6.126,4.621-9.189h102.473V78.031c10.679-.801,18.614-1.396,30.692-2.301v111.99h101.04c8.471,16.594,6.258,24.994-12.856,24.803-28.281-.282-56.567-.073-87.71-.073v108.779h0Z"/><path class="cls-1" d="M1906.908,207.354c-.586,10.731-.997,18.245-1.488,27.241h-223.053v-27.241h224.54Z"/><path class="cls-1" d="M2422.292,372.279c-34.468,0-68.953,.571-103.388-.492-6.748-.208-13.3-6.748-19.943-10.367,6.714-4.533,13.371-12.905,20.151-13.004,66.952-.983,133.928-.9,200.884-.119,6.684,.078,13.29,6.765,19.933,10.384-6.714,4.533-13.272,12.686-20.168,12.981-32.439,1.387-64.97,.618-97.468,.617h0Z"/><path class="cls-1" d="M522.048,722.363h28.236c10.761,45.541-1.025,71.128-50.058,101.406,7.692-35.745,14.516-67.451,21.822-101.406Z"/></svg>