<?xml version="1.0" encoding="UTF-8"?><svg id="Layer_1" xmlns="http://www.w3.org/2000/svg" viewBox="0 0 3980 456"><defs><style>.cls-1{fill:#fff;}</style></defs><path class="cls-1" d="M3699.989,265.598c7.942-38.283,12.475-77.692,24.654-114.576,16.677-50.503,54.033-72.496,106.543-70.533,43.742,1.635,75.947,26.547,90.018,76.068,22.089,77.732,23.181,155.912-10.163,231.142-19.848,44.779-57.583,62.295-105.905,58.306-43.814-3.617-70.568-29.086-83.647-68.628-7.765-23.477-11.21-48.518-15.049-73.098-1.91-12.221-.333-24.987-.333-37.507l-6.12-1.173h0Zm185.783,1.433c-6.152-40.308-10.53-80.482-18.943-119.794-5.017-23.444-19.206-42.974-47.331-43.055-28.098-.08-42.222,19.611-48.094,42.667-19.859,77.959-19.696,156.461,2.032,234.136,6.571,23.489,20.968,41.918,48.935,41.41,26.722-.485,40.705-18.845,45.535-41.282,8.054-37.407,12.075-75.684,17.868-114.084h0Z"/><path class="cls-1" d="M1568.109,430.847c-12.746,5.874-24.183,11.146-44.351,20.442,9.24-44.045,16.36-79.271,24.052-114.372,14.793-67.511,29.335-135.086,45.187-202.351,6.118-25.963,11.061-49.482-22.822-62.581h82.926c-14.06,55.387-28.152,110.902-43,169.397,16.863-15.279,30.303-30.04,46.19-41.369,48.78-34.784,97.515-13.247,104.701,46.142,6.231,51.509-4.839,99.675-33.873,142.869-39.502,58.767-92.317,71.835-159.009,41.823h0Zm153.416-157.851c-10.396-19.957-15.428-46.443-30.354-54.424-23.792-12.72-41.042,11.493-56.456,28.737-31.044,34.727-42.207,77.829-47.085,122.053-1.652,14.978,4.38,39.035,14.847,45.004,12.669,7.224,35.345,3.54,50.736-2.705,12.873-5.224,25.605-19.181,31.191-32.331,14.069-33.13,24.068-67.988,37.122-106.334h0Z"/><path class="cls-1" d="M281.467,187.061c-13.966,63.694-27.862,123.44-39.652,183.598-2.679,13.668,1.94,28.766,3.199,43.205,12.961-6.414,25.964-12.746,38.847-19.313,2.519-1.285,4.573-3.485,10.387-8.041,3.067,7.792,9.456,15.853,7.558,20.603-8.723,21.831-55.197,43.689-79.117,38.407-29.538-6.523-27.513-30.457-27.631-62.734-15.897,17.998-25.932,31.592-38.19,42.74-21.39,19.453-47.477,27.477-74.985,17.102-27.692-10.445-36.287-35.699-38.202-62.961-4.385-62.433,10.515-118.827,56.482-163.61,32.519-31.681,71.964-40.111,114.703-25.269,16.816,5.839,31.135,12.845,45.965-3.344,2.48-2.708,10.456-.382,20.636-.382h-.002ZM84.607,360.104c9.172,17.67,14.147,44.004,29.054,52.139,23.774,12.976,41.401-11.132,56.416-28.39,31.481-36.184,46.391-79.589,48.018-126.652,.493-14.259-5.795-37.244-15.365-41.352-14.029-6.023-36.492-3.468-50.424,4.293-15.58,8.679-30.01,25.371-37.155,41.934-12.706,29.453-19.547,61.436-30.544,98.028h0Z"/><path class="cls-1" d="M319.728,444.17c8.532-58.589,9.718-59.71,44.163-37.952,21.517-26.02,43.959-52.195,64.984-79.461,3.837-4.976,3.439-14.648,2.323-21.73-2.693-17.077-6.556-34.006-10.684-50.813-10.892-44.34-15.444-45.609-50.52-18.36-4.313,3.351-13.477,.457-25.062,.457,18.478-30.287,36.014-53.019,69.342-51.312,55.252,2.83,38.015,55.618,55.508,84.695,36.215-31.055,47.555-96.078,117.504-82.787-1.746,12.243-2.582,22.523-4.781,32.504-3.416,15.504-9.496,25.371-27.47,13.012-4.033-2.774-15.085-1.688-18.368,1.842-19.015,20.445-37.633,41.444-54.179,63.883-4.698,6.371-3.961,18.536-2.34,27.429,3.957,21.722,8.879,43.4,15.483,64.446,2.914,9.287,9.618,22.186,16.87,23.911,6.763,1.608,16.758-9.112,24.879-15.026,3.733-2.719,6.383-6.922,14.964-16.564,2.904,12.29,8.025,20.917,5.643,26.097-11.571,25.173-43.484,41.419-69.418,37.314-28.178-4.461-31.149-28.392-37.144-49.351-3.881-13.57-5.793-27.703-8.812-42.705-39.578,31.992-48.768,103.435-122.885,90.475v-.002Z"/><path class="cls-1" d="M2027.689,384.354c4.036,9.283,10.452,16.733,8.949,21.864-6.16,21.04-40.969,40.583-65.299,40.009-27.587-.652-34.862-20.5-40.586-41.536-4.463-16.404-7.413-33.219-11.246-50.81-39.47,31.804-48.599,103.325-125.468,89.773,5.386-17.618,9.515-33.719,16.206-48.673,.615-1.375,17.585,4.567,32.83,8.705,19.456-23.537,41.894-49.718,62.912-76.993,3.83-4.971,3.384-14.653,2.263-21.741-2.699-17.077-6.551-34.007-10.684-50.814-10.878-44.239-15.319-45.454-50.547-18.22-4.323,3.341-13.46,.456-23.536-6.328,10.942-11.415,20.55-24.639,33.088-33.894,32.535-24.018,64.572-13.267,76.621,24.904,5.063,16.04,8.072,32.729,12.288,50.265,37.969-31.783,48.328-98.203,118.836-83.487-1.699,11.829-2.527,22.125-4.76,32.106-3.464,15.485-9.49,25.09-27.568,12.993-4.296-2.876-16.434-.465-20.454,3.783-17.862,18.877-35.006,38.63-50.356,59.572-4.828,6.587-5.621,18.273-4.147,26.924,3.87,22.699,9.005,45.315,15.711,67.333,2.825,9.272,9.665,22.178,16.891,23.846,6.806,1.571,16.742-9.162,24.859-15.089,3.726-2.72,6.39-6.892,13.194-14.491h.001Z"/><path class="cls-1" d="M1165.652,272.859V123.015h37.756v147.315h141.801v35.622h-140.372v150.048h-37.702v-147.984h-141.391c-.572-12.449-1.029-22.394-1.616-35.157h141.525Z"/><path class="cls-1" d="M2421.889,271.56h141.394c.508,11.612,.942,21.547,1.501,34.324h-140.512v149.816h-38.798v-147.422h-141.77v-35.625h140.491V122.638h37.694v148.922Z"/><path class="cls-1" d="M2956.873,192.629c-4.555,22.212-8.385,40.885-12.476,60.832-9.637,.528-18.007,.986-27.894,1.528-1.485-7.552-3.07-13.83-3.911-20.204-2.968-22.502-16.954-30.097-36.882-24.001-12.414,3.797-25.994,10.208-34.395,19.607-39.607,44.315-52.915,97.506-44.969,155.623,3.71,27.138,25.907,34.14,47.967,28.926,22.757-5.379,43.877-17.68,70.479-28.975,10.076,4.634,14.273,12.668-1.03,25.966-31.79,27.625-68.343,39.418-109.805,33.16-34.686-5.235-57.327-34.415-58.181-79.293-1.022-53.717,14.08-103.285,52.452-142.747,44.504-45.768,98.927-44.555,158.643-30.422h0Z"/><path class="cls-1" d="M689.969,213.984c47.304-2.104,88.062,11.038,120.277-30.565,1.437,3.45,2.875,6.901,4.312,10.351-1.82,15.742-3.64,31.484-5.556,48.063h-168.945c19.317-27.631,33.636-50.838,50.723-71.788,17.013-20.86,37.575-38.797,55.048-59.321,8.51-9.995,15.273-22.335,19.737-34.726,7.656-21.25,2.746-41.054-17.602-52.506-21.19-11.926-40.348-5.3-57.443,11.384-8.638,8.431-19.639,14.443-31.35,22.822-12.494-33.059-2.614-47.019,22.283-50.698,22.74-3.361,45.823-7.691,68.593-6.906,53.229,1.837,78.638,49.992,48.625,94.111-17.147,25.205-40.827,45.969-61.619,68.685-13.626,14.886-27.347,29.686-47.082,51.095h0Z"/><path class="cls-1" d="M3168.11,247.049v-31.763h318.939v31.763h-318.939Z"/><path class="cls-1" d="M3167.933,362.673v-31.395h318.925v31.395h-318.925Z"/></svg>