<?xml version="1.0" encoding="UTF-8"?><svg id="Layer_1" xmlns="http://www.w3.org/2000/svg" viewBox="0 0 2000 2000"><defs><style>.cls-1{fill:#fff;fill-rule:evenodd;}</style></defs><path class="cls-1" d="M999.935,24.694C447.766,24.694,0,472.404,0,1024.752c0,441.774,286.503,816.585,683.911,948.835,50.002,9.172,68.252-21.701,68.252-48.203,0-23.739-.866-86.626-1.351-170.078-278.166,60.431-336.86-134.049-336.86-134.049-45.471-115.522-111.029-146.278-111.029-146.278-90.794-62.046,6.869-60.787,6.869-60.787,100.353,7.072,153.172,103.054,153.172,103.054,89.204,152.816,234.046,108.689,291.027,83.09,9.086-64.624,34.918-108.689,63.489-133.687-222.056-25.237-455.501-111.028-455.501-494.231,0-109.168,38.964-198.434,102.931-268.338-10.283-25.298-44.599-126.971,9.804-264.648,0,0,83.962-26.888,274.992,102.514,79.763-22.18,165.308-33.273,250.351-33.66,84.919,.387,170.471,11.48,250.351,33.66,190.914-129.402,274.722-102.514,274.722-102.514,54.556,137.677,20.234,239.35,9.951,264.648,64.09,69.904,102.79,159.17,102.79,268.338,0,384.16-233.806,468.693-456.581,493.451,35.906,30.873,67.89,91.906,67.89,185.186,0,133.687-1.228,241.541-1.228,274.329,0,26.741,18.012,57.853,68.762,48.086,397.021-132.496,683.285-507.061,683.285-948.718,0-552.348-447.772-1000.058-1000.065-1000.058Z"/></svg>