<?xml version="1.0" encoding="UTF-8"?><svg id="Layer_1" xmlns="http://www.w3.org/2000/svg" viewBox="0 0 1620 1860"><defs><style>.cls-1{fill:#fff;}</style></defs><g><path d="M630.49,890c-1.717,0-3.444-.157-5.134-.466l-.891-.163H317.107c-101.11,0-176.467-20.253-223.978-60.196l-.176-.145c-24.243-19.456-42.643-44.72-54.69-75.093-12.119-30.551-18.263-67.338-18.263-109.338V256.19c0-84.366,24.217-146.642,71.979-185.099C142.238,30.622,217.982,10.103,317.107,10.103h305.138l.333-.022c.799-.053,1.61-.081,2.411-.081,8.266,0,16.296,2.851,22.708,8.043,5.671,7.104,8.399,15.97,7.692,25.063l-.03,.387V196.671l.03,.387c.706,9.08-2.014,17.935-7.669,25.034-6.312,5.021-14.183,7.778-22.263,7.778-.92,0-1.853-.036-2.772-.107l-.387-.03h-249.846c-2.359-.172-4.75-.259-7.111-.259-20.278,0-39.75,6.187-56.31,17.893l-.496,.351-.45,.408c-15.379,13.948-23.401,33.789-22.044,54.488v295.502c-1.57,20.312,6.744,40.266,22.294,53.454l.49,.415,.539,.349c16.534,10.719,35.689,16.384,55.395,16.384,2.561,0,5.152-.098,7.708-.292h251.078l.317-.02c.787-.05,1.586-.076,2.374-.076,8.323,0,16.469,2.81,23.022,7.927,6.871,7.812,10.188,18.171,9.118,28.541l-.053,.512v149.912l.177,.928c2.944,15.443-7.224,30.402-22.667,33.347-1.756,.335-3.553,.505-5.341,.505Z"/><path class="cls-1" d="M624.988,20c5.611,0,11.071,1.817,15.554,5.147,3.633,4.962,5.357,11,4.877,17.185l-.06,.774V197.059l.06,.774c.479,6.158-1.23,12.172-4.831,17.122-4.383,3.181-9.691,4.915-15.131,4.915-.664,0-1.336-.026-1.997-.077l-.774-.06h-249.88c-2.478-.172-4.986-.259-7.466-.259-22.357,0-43.825,6.822-62.082,19.727l-.992,.701-.9,.816c-17.57,15.935-26.775,38.573-25.327,62.213v294.815c-1.677,23.365,7.936,46.278,25.827,61.451l.979,.83,1.077,.698c18.158,11.771,39.194,17.993,60.832,17.993,2.683,0,5.397-.098,8.079-.292h251.027l.634-.04c.576-.037,1.16-.055,1.738-.055,5.786,0,11.454,1.853,16.12,5.245,4.621,5.633,6.826,12.91,6.073,20.195l-.106,1.025v151.371l.354,1.856c.926,4.857-.095,9.784-2.875,13.874-2.78,4.089-6.985,6.852-11.842,7.778-1.141,.217-2.307,.328-3.468,.328-1.115,0-2.237-.102-3.334-.303l-1.786-.327H317.107c-49.995,0-93.86-5.026-130.375-14.937-35.399-9.608-64.726-24.046-87.167-42.913l-.174-.146-.178-.143c-23.197-18.616-40.092-41.834-51.654-70.981-11.651-29.373-17.559-64.919-17.559-105.651V256.19c0-81.189,22.963-140.845,68.25-177.31,48.437-39.002,122.071-58.777,218.857-58.777h305.472l.668-.045c.576-.039,1.162-.058,1.742-.058m0-20c-1.024,0-2.051,.034-3.079,.103H317.107C213.092,.103,136.398,22.486,85.707,63.302,35.016,104.118,10,169.95,10,256.19v388.41c0,86.569,25.016,150.756,76.695,192.23,49.594,41.694,126.398,62.54,230.413,62.541h306.449c2.293,.42,4.614,.63,6.935,.63,2.415,0,4.831-.227,7.213-.681,20.893-3.984,34.601-24.15,30.617-45.043v-148.451c1.391-13.464-3.042-26.88-12.179-36.866-8.475-6.894-19.044-10.629-29.908-10.629-1,0-2.004,.032-3.008,.095h-251.15c-2.443,.195-4.884,.292-7.321,.292-17.675,0-35.035-5.104-49.953-14.775-13.229-11.219-20.218-28.14-18.762-45.424V302.273c-1.249-17.634,5.667-34.865,18.762-46.741,14.825-10.48,32.492-16.059,50.538-16.059,2.241,0,4.488,.086,6.736,.259h249.833c1.185,.092,2.367,.138,3.548,.138,10.7,0,21.107-3.755,29.368-10.671,7.679-9.173,11.46-20.989,10.533-32.916V43.881c.927-11.927-2.854-23.743-10.533-32.916-8.355-7.1-18.94-10.965-29.838-10.965h0Z"/></g><g><path d="M1339.299,888.385h-213.12l-.893,.164c-1.712,.313-3.451,.472-5.171,.472-13.725,0-25.483-9.82-27.96-23.349-.636-3.473-.623-6.992,.038-10.46l.177-.928v-163.734l-193.161-258.653c-15.269-19.484-27.427-41.105-36.142-64.271-7.081-27.004-10.138-54.837-9.084-82.733l.007-.188V44.831l-.021-.317c-.581-9.155,2.193-18.122,7.823-25.338,6.8-5.908,15.467-9.153,24.491-9.153,.721,0,1.451,.021,2.171,.063l.29,.017h192.645l.334-.022c.798-.053,1.608-.081,2.408-.081,8.253,0,16.271,2.846,22.675,8.031,5.662,7.094,8.386,15.947,7.681,25.027l-.03,.387v233.066l.06,.542c1.212,11.08,5.343,21.669,11.95,30.641l59.761,89.477c3.878,7.22,9.061,13.513,15.41,18.71l.317,.26,.337,.233c6.366,4.394,13.82,6.716,21.554,6.716,.349,0,.696-.004,1.045-.014h12.198c.348,.01,.695,.014,1.042,.014,7.734,0,15.188-2.322,21.554-6.716l.337-.232,.316-.259c6.385-5.226,11.591-11.56,15.477-18.832l56.884-90.23c6.266-8.991,10.23-19.491,11.469-30.381l.064-.563V44.76l-.03-.387c-.706-9.074,2.015-17.922,7.672-25.015,6.446-5.188,14.507-8.035,22.796-8.035,.771,0,1.554,.025,2.325,.074l.319,.021h189.37l.319-.021c.771-.049,1.554-.074,2.325-.074,8.266,0,16.304,2.831,22.741,7.991,5.56,7.191,8.295,16.102,7.717,25.2l-.021,.317v239.888l.008,.204c1.14,27.891-2.016,55.675-9.379,82.594-8.991,23.049-21.09,44.76-35.967,64.536l-190.411,260.526v162.691l.177,.928c2.939,15.421-7.214,30.358-22.634,33.298-.747,.143-1.502,.255-2.261,.337v-1.449Z"/><path class="cls-1" d="M1084.131,20c5.599,0,11.047,1.813,15.521,5.135,3.624,4.952,5.345,10.977,4.865,17.148l-.06,.774v233.999l.119,1.084c1.394,12.752,6.128,24.943,13.698,35.292l59.38,88.907c4.475,8.199,10.409,15.354,17.651,21.281l.633,.518,.674,.465c8.044,5.552,17.461,8.486,27.235,8.486,.39,0,.78-.005,1.17-.014h11.943c.391,.01,.781,.014,1.171,.014,9.773,0,19.191-2.934,27.235-8.486l.674-.465,.634-.519c7.316-5.988,13.296-13.228,17.787-21.531l56.579-89.746c7.134-10.306,11.648-22.318,13.065-34.774l.128-1.126V44.372l-.06-.774c-.479-6.161,1.236-12.178,4.849-17.126,4.517-3.331,10.01-5.149,15.649-5.149,.559,0,1.127,.018,1.687,.054l.638,.041h190.01l.638-.041c.559-.036,1.126-.054,1.686-.054,5.594,0,11.044,1.789,15.541,5.07,3.59,5.087,5.335,11.227,4.937,17.487l-.04,.634v240.409l.017,.408c1.09,26.685-1.902,53.272-8.896,79.041-8.641,22.02-20.228,42.763-34.451,61.669l-.083,.11-.081,.112-188.402,257.779-3.853,5.272v166.901l.354,1.856c.924,4.846-.094,9.762-2.868,13.842-1.953,2.872-4.61,5.089-7.703,6.471h-218.527l-1.786,.327c-1.118,.205-2.252,.309-3.37,.309-8.894,0-16.516-6.371-18.124-15.15-.412-2.253-.404-4.536,.025-6.785l.354-1.856v-168.002l-3.975-5.323-191.033-255.806-.139-.186-.143-.183c-14.533-18.547-26.127-39.112-34.471-61.142-6.739-25.895-9.643-52.574-8.633-79.318l.014-.377V44.514l-.04-.634c-.405-6.38,1.415-12.635,5.145-17.778,4.859-3.931,10.905-6.079,17.189-6.079,.528,0,1.062,.016,1.589,.046l.581,.034h193.269l.667-.045c.578-.038,1.164-.058,1.741-.058M1084.131,0c-1.023,0-2.049,.034-3.075,.103h-192.019c-.919-.053-1.836-.08-2.751-.08-11.709,0-23.043,4.344-31.773,12.245-7.52,9.245-11.278,20.987-10.522,32.88v239.366c-1.096,29.029,2.118,58.059,9.535,86.146,9.075,24.273,21.828,47.006,37.812,67.404l191.033,255.807v159.468c-.89,4.667-.907,9.459-.052,14.133,3.397,18.557,19.581,31.548,37.797,31.548,2.299,0,4.63-.207,6.972-.636h202.212v.986c2.291,.419,4.609,.629,6.928,.629,2.412,0,4.825-.227,7.205-.681,20.87-3.979,34.563-24.124,30.584-44.994v-158.482l188.402-257.779c15.528-20.642,28.141-43.323,37.483-67.404,7.723-28.032,11.051-57.093,9.864-86.146V45.149c.756-11.894-3.001-23.635-10.522-32.88-8.39-7.088-18.996-10.945-29.916-10.945-.985,0-1.975,.031-2.964,.095h-188.731c-.99-.063-1.978-.095-2.964-.095-10.919,0-21.526,3.858-29.916,10.945-7.671,9.163-11.448,20.966-10.522,32.88v230.16c-1.063,9.347-4.455,18.278-9.864,25.975l-57.211,90.749c-3.261,6.197-7.733,11.676-13.152,16.111-4.673,3.225-10.211,4.946-15.874,4.946-.298,0-.596-.005-.894-.014h-12.495c-.299,.01-.596,.014-.894,.014-5.663,0-11.202-1.721-15.874-4.946-5.419-4.435-9.891-9.914-13.152-16.111l-60.171-90.091c-5.645-7.599-9.164-16.565-10.193-25.975V43.833c.926-11.914-2.851-23.717-10.522-32.88C1105.589,3.861,1095.016,0,1084.131,0h0Z"/></g><g><path d="M48.524,1840c-13.898,0-25.717-9.96-28.103-23.684-.589-3.388-.563-6.819,.075-10.2l.174-.92V993.561l-.03-.388c-.708-9.11,2.025-17.994,7.708-25.112,6.425-5.204,14.471-8.061,22.752-8.061,.803,0,1.616,.027,2.417,.081l.334,.022H439.233c109.592,0,185.404,21.635,225.338,64.303,41.223,46.806,62.432,106.896,59.72,169.213l-.009,.217v159.29l.006,.175c2.192,62.604-19.692,122.696-61.628,169.226-39.625,41.623-115.46,62.728-225.405,62.728h-153.074v218.578l.158,.877c2.816,15.685-7.652,30.737-23.337,33.554-1.681,.302-3.4,.455-5.108,.455s-3.427-.153-5.109-.455l-11.767-2.112v3.273H54.313l-.85,.147c-1.635,.284-3.296,.429-4.938,.429Zm355.083-458.258c2.646,.347,5.331,.522,7.992,.522,18.765,0,36.25-8.408,47.972-23.068l.438-.548,.356-.603c8.55-14.438,12.907-30.937,12.604-47.713v-65.749c.303-16.776-4.054-33.274-12.604-47.713l-.356-.603-.438-.548c-11.722-14.66-29.207-23.068-47.972-23.068-2.656,0-5.335,.175-7.977,.521l-122.079-.356v208.926h122.063Z"/><path class="cls-1" d="M51.104,970c.581,0,1.169,.02,1.746,.058l.668,.045H439.233c106.613,0,179.935,20.533,217.932,61.026,19.499,22.167,34.371,47.52,44.206,75.361,9.867,27.931,14.217,57.099,12.929,86.694l-.019,.435v159.683l.012,.35c1.041,29.719-3.595,58.954-13.778,86.893-10.154,27.857-25.357,53.151-45.192,75.184-37.69,39.499-111.055,59.525-218.068,59.525h-163.074v229.469l.315,1.753c1.842,10.258-5.004,20.102-15.261,21.944-1.1,.197-2.224,.298-3.341,.298s-2.241-.1-3.341-.298l-23.535-4.226v5.23H53.45l-1.7,.296c-1.071,.186-2.156,.281-3.225,.281-9.025,0-16.7-6.475-18.251-15.397-.383-2.202-.366-4.433,.049-6.629l.348-1.841V993.172l-.06-.774c-.482-6.202,1.248-12.258,4.892-17.234,4.496-3.341,9.973-5.163,15.6-5.163m351.908,193.171l-111.409-.326-20.059-.059v228.955h131.436c2.858,.347,5.75,.522,8.619,.522,21.82,0,42.152-9.777,55.781-26.823l.875-1.094,.714-1.206c9.48-16.01,14.319-34.297,13.999-52.898v-65.569c.32-18.601-4.519-36.888-13.999-52.898l-.714-1.205-.875-1.094c-13.629-17.046-33.96-26.823-55.782-26.824-2.859,0-5.741,.174-8.588,.519M51.103,950c-10.914,0-21.516,3.872-29.883,10.982-7.691,9.187-11.478,21.021-10.549,32.966v810.312c-.859,4.546-.894,9.21-.101,13.768,3.259,18.753,19.551,31.972,37.955,31.972,2.192,0,4.416-.188,6.65-.576H249.017v-1.319c2.274,.408,4.575,.613,6.876,.613s4.602-.204,6.876-.613c21.146-3.797,35.209-24.018,31.412-45.164v-207.688h143.074c113.404,0,190.985-21.978,232.742-65.933,43.505-48.219,66.557-111.465,64.284-176.37v-158.898c2.813-64.634-19.517-127.846-62.306-176.37-41.867-44.834-119.338-67.581-232.742-67.581H54.187c-1.03-.069-2.057-.103-3.083-.103h0Zm353.185,233.175c2.443-.35,4.884-.522,7.311-.522,15.492,0,30.324,7.01,40.161,19.313,7.614,12.859,11.495,27.585,11.208,42.526v65.933c.287,14.942-3.594,29.667-11.208,42.527-9.838,12.304-24.668,19.313-40.161,19.313-2.426,0-4.869-.172-7.311-.522h-112.745v-188.897l112.745,.33h0Z"/></g><g><path d="M1264.263,1840c-5.213,0-10.499-.056-15.711-.165l-.206-.004-.206,.004c-5.119,.104-10.312,.157-15.434,.157-54.311,0-108.753-5.873-161.816-17.456-38.937-8.21-75.093-23.978-107.54-46.885-23.646-17.97-41.353-42.27-51.215-70.285l-.037-.103c-10.945-30.044-16.536-61.491-16.616-93.468v-398.199c.072-32.158,5.665-63.817,16.623-94.075,10.383-28.151,28.654-52.515,52.821-70.399,31.772-23.169,67.437-39.153,105.942-47.466,53.087-11.588,107.53-17.461,161.84-17.461,5.121,0,10.312,.053,15.432,.157l.206,.004,.206-.004c5.212-.109,10.498-.165,15.711-.165,54.013,0,108.148,5.875,160.905,17.462,38.962,8.244,75.012,24.215,107.23,47.49,23.938,17.96,42.08,42.277,52.475,70.339,10.427,30.311,15.508,61.934,15.102,93.991v398.487c.433,31.954-4.648,63.469-15.102,93.673-10.316,28.006-28.436,52.201-52.407,69.983-32.408,22.823-68.49,38.606-107.248,46.914-52.807,11.598-106.942,17.473-160.955,17.473Zm-125.553-270.399c-.317,18.003,7.343,35.036,21.027,46.744l.779,.666,.898,.495c21.228,11.689,45.258,17.868,69.492,17.869h.007c5.29,0,10.632-.297,15.899-.881,5.223,.571,10.521,.861,15.766,.861,24.264,0,48.332-6.17,69.604-17.843l.906-.497,.784-.671c13.685-11.709,21.345-28.742,21.027-46.744v-313.875c.018-17.604-7.646-34.275-21.025-45.729l-.785-.673-.907-.497c-21.272-11.673-45.342-17.843-69.604-17.843-5.246,0-10.544,.29-15.767,.861-5.268-.584-10.611-.88-15.902-.88-24.235,0-48.267,6.179-69.495,17.868l-.899,.495-.78,.668c-13.381,11.454-21.044,28.126-21.025,45.739v313.864Z"/><path class="cls-1" d="M1264.257,994.188c53.294,0,106.711,5.797,158.766,17.229l.075,.016,.075,.016c37.483,7.931,72.235,23.32,103.296,45.744,22.328,16.774,39.262,39.468,48.984,65.647,10.028,29.19,14.913,59.638,14.522,90.504l-.002,.126v398.487l.002,.135c.415,30.762-4.469,61.097-14.519,90.172-9.634,26.099-26.521,48.654-48.851,65.247-31.275,22.004-66.09,37.224-103.485,45.24l-.049,.011-.049,.011c-52.055,11.432-105.473,17.229-158.768,17.229-5.144,0-10.357-.054-15.493-.162l-.413-.009-.412,.008c-5.057,.103-10.179,.155-15.225,.155-53.598,0-107.325-5.796-159.689-17.227l-.07-.015-.07-.015c-37.468-7.899-72.329-23.09-103.62-45.151-22.015-16.772-38.504-39.428-47.696-65.54l-.036-.103-.037-.102c-10.548-28.952-15.935-59.256-16.012-90.069v-398.13c.069-31.004,5.455-61.509,16.007-90.663,9.721-26.322,26.772-49.061,49.316-65.766,30.682-22.364,65.059-37.767,102.219-45.79,52.365-11.431,106.093-17.227,159.691-17.227,5.054,0,10.176,.052,15.223,.155l.412,.008,.413-.009c5.141-.108,10.353-.162,15.493-.162h.002m-135.547,575.324c-.345,20.965,8.587,40.793,24.526,54.431l1.559,1.334,1.797,.99c22.703,12.501,48.402,19.109,74.319,19.109,5.292,0,10.634-.277,15.91-.824,5.228,.534,10.518,.805,15.758,.805,25.941,0,51.674-6.597,74.416-19.076l1.811-.994,1.57-1.343c15.938-13.637,24.87-33.466,24.526-54.431v-313.765c.022-20.543-8.916-39.987-24.522-53.346l-1.571-1.345-1.813-.995c-22.741-12.479-48.474-19.075-74.415-19.076-5.241,0-10.531,.27-15.759,.805-5.278-.547-10.619-.824-15.911-.824-25.917,0-51.615,6.608-74.318,19.109l-1.799,.99-1.56,1.336c-15.606,13.359-24.544,32.803-24.522,53.325v313.787m135.545-595.324c-5.302,0-10.608,.056-15.912,.167-5.212-.106-10.42-.159-15.629-.159-55.112,0-110.083,5.927-163.956,17.687-39.628,8.555-77.025,25.315-109.781,49.202-25.667,18.995-45.225,45.074-56.274,75.032-11.321,31.257-17.147,64.237-17.221,97.48v398.225c.083,33.042,5.91,65.819,17.221,96.865,10.502,29.832,29.535,55.923,54.736,75.032,33.407,23.613,71.289,40.147,111.318,48.587,53.877,11.761,108.839,17.687,163.955,17.687,5.206,0,10.423-.053,15.631-.159,5.308,.111,10.606,.167,15.912,.167,54.813,0,109.491-5.93,163.058-17.695,39.899-8.553,77.658-25.079,111.011-48.587,25.543-18.918,44.997-44.892,55.967-74.725,10.823-31.237,16.129-64.118,15.683-97.173v-398.225c.42-33.154-4.885-66.131-15.683-97.48-11.043-29.877-30.477-55.931-55.967-75.032-33.163-23.971-70.978-40.731-111.011-49.202-53.571-11.765-108.242-17.695-163.059-17.695h0Zm-33.345,651.187c-22.529,0-44.787-5.68-64.672-16.629-11.387-9.743-17.817-24.07-17.528-39.054v-313.967c-.016-14.662,6.389-28.596,17.528-38.131,19.886-10.95,42.141-16.629,64.672-16.629,5.291,0,10.602,.314,15.896,.946,5.256-.62,10.52-.927,15.773-.927,22.565,0,44.865,5.673,64.795,16.61,11.139,9.535,17.543,23.469,17.528,38.131v313.967c.289,14.984-6.141,29.311-17.528,39.054-19.932,10.937-42.228,16.61-64.795,16.61-5.252,0-10.518-.307-15.773-.927-5.295,.632-10.603,.946-15.896,.946h0Z"/></g></svg>