<?xml version="1.0" encoding="UTF-8"?><svg id="Layer_1" xmlns="http://www.w3.org/2000/svg" viewBox="0 0 2000 2000"><defs><style>.cls-1{fill:#fff;}</style></defs><path class="cls-1" d="M843.86,2000c-47.767-8.928-96.536-14.309-143.11-27.461-130.286-36.793-237.495-110.276-321.85-215.875-98.371-123.144-142.39-264.591-141.92-421.915,1.081-362.483,.608-724.972,.171-1087.458-.118-97.905,39.541-173.197,125.941-219.432,152.451-81.58,335.632,25.409,343.102,199.35,1.925,44.824,.505,89.793,.617,134.695,.016,6.29,.002,12.58,.002,19.399,148.045-45.165,177.203-40.274,293.848,48.785,85.383-83.424,182.579-99.463,292.695-47.565,0-48.382-.066-95.02,.016-141.656,.114-64.609,20.143-122.162,66.186-167.919,71.872-71.424,157.271-90.658,252.823-56.56,86.17,30.75,145.943,115.123,149.836,207.479,.356,8.449,.595,16.911,.596,25.367,.029,363.788-.358,727.577,.208,1091.364,.237,152.294-42.721,289.88-137.066,409.816-105.474,134.084-243.13,214.793-411.93,241.585-19.181,3.044-38.479,5.351-57.723,8h-312.444Zm144.31-704.009c33.696,40.319,69.567,77.454,98.687,119.289,60.72,87.232,88.341,185.961,88.845,292.074,.149,31.223-24.265,55.694-55.022,57.718-29.737,1.958-56.98-20.618-61.253-51.349-1.249-8.982-.933-18.183-1.323-27.284-8.319-194.215-158.5-359.357-351.231-385.776-23.781-3.26-48.056-3.252-71.674-7.274-28.458-4.846-46.672-30.283-45.467-59.497,1.174-28.47,22.695-51.508,51.425-54.534,8.385-.883,16.892-.832,25.342-.834,162.7-.044,325.4,.007,488.1-.116,11.677-.009,23.407-.7,35.021-1.937,59.551-6.345,104.216-56.971,103.558-117.022-.649-59.139-45.84-108.769-104.367-114.382-10.343-.992-20.764-1.69-31.147-1.665-177.651,.439-355.357-1.479-532.935,2.39-129.261,2.816-248.172,111.964-264.386,240.319-7.371,58.357-4.823,118.098-4.905,177.213-.112,80.706,18.534,157.651,56.446,228.734,90.84,170.317,232.326,270.186,425.097,286.556,100.167,8.506,201.63,5.228,302.38,2.517,122.55-3.298,231.306-47.232,323.369-128.254,123.299-108.513,182.883-246.228,182.742-410.46-.313-364.448-.094-728.896-.122-1093.343,0-7.153-.178-14.318-.597-21.458-3.542-60.351-52.763-107.811-113.721-109.739-58.142-1.838-109.913,42.102-117.988,100.592-1.594,11.549-2.226,23.319-2.235,34.987-.226,272.033,.696,544.071-.884,816.095-.674,115.977-93.964,215.116-209.564,223.696-63.452,4.709-127.45,2.078-191.202,2.733-7.569,.078-15.139,.011-20.987,.011ZM354.791,947.998c6.958-5.906,10.387-8.603,13.578-11.557,58.238-53.901,126.265-88.775,204.315-102.873,14.688-2.653,17.124-8.577,17.027-21.662-.543-73.511-.26-147.028-.261-220.542-.001-116.453,.549-232.909-.186-349.357-.559-88.57-77.796-144.991-157.924-116.601-48.932,17.337-76.49,60.702-76.513,121.306-.086,226.399-.035,452.799-.035,679.198v22.086Zm937.794-90.406c0-96.582,.442-189.54-.505-282.483-.133-13.063-5.312-26.909-11.157-38.934-24.315-50.022-78.175-75.167-131.84-62.833-52.171,11.99-89.41,58.414-90.093,115.417-.905,75.458-.243,150.935-.158,226.403,.003,3.072,.986,6.143,1.631,9.908,77.786,4.223,157.541-11.494,232.122,32.521Zm-353.549-32.842c0-86.624,4.34-172.54-1.435-257.77-4.275-63.096-66.619-103.652-129.623-95.123-57.475,7.78-99.819,54.09-100.727,113.492-1.173,76.739-.368,153.509-.297,230.265,.003,3.033,1.216,6.065,1.873,9.136h230.208Z"/></svg>