<?xml version="1.0" encoding="UTF-8"?><svg id="Layer_1" xmlns="http://www.w3.org/2000/svg" viewBox="0 0 2000 2000"><path d="M1066.406,0c40.671,7.886,82.277,12.579,121.856,24.187,217.115,63.678,393.197,181.472,489.145,393.82,73.249,162.111,58.683,322.966-29.583,476.469-36.117,62.811-92.606,107.269-150.805,147.945-46.777,32.693-97.948,59.028-145.595,90.563-58.778,38.901-98.133,93.964-122.289,159.815-3.957,10.788-5.61,22.72-6.538,34.268-3.658,45.522-33.296,73.805-78.693,73.837-110.663,.076-221.327,.027-331.99,.026-51.745,0-74.483-16.545-81.212-68.615-14.819-114.664,4.651-221.612,80.83-313.251,67.378-81.052,146.392-147.307,242.679-192.102,45.431-21.135,89.455-44.847,124.899-81.717,44.265-46.047,70.487-154.123,1.14-214.702-65.026-56.805-140.619-77.176-225.482-72.735-89.336,4.675-157.735,46.666-213.712,113.313-29.712,35.376-59.976,70.289-89.661,105.688-29.53,35.213-61.835,39.913-98.863,11.977-83.094-62.689-165.844-125.839-248.384-189.257-28.915-22.217-34.969-53.909-16.241-84.791,84.954-140.089,193.556-255.883,342.011-330.241C722.793,37.976,821.345,12.027,924.751,3.811c5.617-.446,11.106-2.503,16.655-3.811,41.667,0,83.333,0,125,0Z"/><path d="M773.437,2000c-34.911-17.094-47.304-45.073-46.803-83.637,1.472-113.238,1.598-226.522-.027-339.755-.611-42.615,26.517-78.368,76.553-77.355,118.415,2.397,236.912,.736,355.376,.789,43.573,.019,70.015,24.565,70.254,68.282,.663,121.064,.051,242.134,.348,363.201,.082,33.437-18.486,53.557-45.546,68.476h-410.156Z"/></svg>