<?xml version="1.0" encoding="UTF-8"?><svg id="Layer_1" xmlns="http://www.w3.org/2000/svg" viewBox="0 0 2000 2000"><path d="M449.257,2000c-23.812-7.719-48.822-12.924-71.226-23.597-91.37-43.53-138.843-120.046-150.43-217.629-20.148-169.683,76.097-335.84,231.019-402.974,78.32-33.939,157.344-36.546,235.464,2.324,2.223,1.106,4.76,1.58,8.144,2.668,3.55-5.719,7.094-11.053,10.268-16.598,54.56-95.304,108.837-190.771,163.891-285.789,7.087-12.231,7.048-21.397,.69-33.86-134.576-263.775-268.037-528.121-403.355-791.513-35.875-69.829-17.826-131.855,17.097-193.758,7.602-13.475,16.531-26.202,24.849-39.274h3.907c.8,1.732,1.474,3.536,2.418,5.187,156.278,273.43,312.573,546.851,468.899,820.254,2.446,4.277,5.289,8.328,9.276,14.562,4.759-7.855,8.467-13.69,11.899-19.684,60.66-105.947,121.367-211.868,181.902-317.887C1289.574,334.992,1385.059,167.481,1480.594,0c1.302,0,2.604,0,3.907,0,16.929,31.923,35.997,62.923,50.27,95.992,19.945,46.214,14.667,91.773-8.441,136.973-134.508,263.096-268.047,526.688-402.444,789.841-7.084,13.87-7.03,23.922,.784,37.389,54.46,93.866,108.026,188.25,161.93,282.439,3.501,6.117,7.424,11.993,8.804,14.209,36.128-8.783,69.433-20.767,103.63-24.436,88.48-9.494,165.253,22.238,231.657,78.306,91.107,76.925,141.074,176.197,144.842,295.55,4.383,138.792-73.039,257.153-202.82,287.56-7.345,1.721-14.536,4.102-21.799,6.176h-70.318c-2.99-1.169-5.888-2.961-8.983-3.417-64.288-9.458-119.836-37.787-168.685-79.533-85.34-72.93-127.085-167.883-143.022-277.496-16.018-110.167-44.463-217.369-91.987-318.713-18.399-39.234-39.123-77.109-68.274-111.696-6.75,8.975-12.639,15.878-17.487,23.447-10.16,15.862-20.49,31.683-29.494,48.206-64.946,119.191-95.407,249.007-116.941,381.543-21.279,130.966-85.759,233.608-203.162,297.897-34.556,18.923-75.154,26.814-112.984,39.761h-70.318Zm230.698-383.393c0-5.857,.46-11.755-.069-17.563-7.812-85.77-68.003-131.727-150.093-102.076-95.446,34.475-156.232,143.353-146.143,239.235,4.655,44.243,21.897,83.266,68.664,100.154,31.203,11.267,62.011,6.912,90.745-6.947,88.758-42.81,129.555-117.257,136.895-212.802Zm635.96-6.318c6.207,29.466,8.682,54.351,16.785,77.244,25.562,72.224,70.888,126.848,146.852,149.642,58.696,17.613,106.465-6.517,128.11-63.721,16.37-43.264,12.546-87.143-2.502-129.681-25.039-70.782-68.875-124.978-142.629-149.235-52.155-17.153-98.979-2.09-122.851,42.545-12.427,23.236-16.769,50.795-23.766,73.205Z"/></svg>