<?xml version="1.0" encoding="UTF-8"?>
<svg id="Layer_1" data-name="Layer 1" xmlns="http://www.w3.org/2000/svg" viewBox="0 0 2000 50">
  <defs>
    <style>
      .cls-1 {
        fill: #370617;
      }
    </style>
  </defs>
  <path class="cls-1" d="M0,11.29l37.08,3.76c36.94,3.83,111.53,11.24,185.14,17.89,74.03,6.58,148.61,12.23,222.22,15.05,74.03,2.82,148.61,2.82,222.22-.94,74.03-3.83,148.61-11.24,222.22-17.89,74.03-6.58,148.61-12.23,222.22-15.05,74.03-2.82,148.61-2.82,222.22,2.82,74.03,5.65,148.61,16.94,222.22,16,74.03-1.01,148.61-14.06,222.22-16.94,74.03-2.77,148.61,4.64,184.72,8.47l37.5,3.76V0H0V11.29Z"/>
</svg>