<?xml version="1.0" encoding="UTF-8"?>
<svg id="Layer_1" data-name="Layer 1" xmlns="http://www.w3.org/2000/svg" viewBox="0 0 2000 50">
  <defs>
    <style>
      .cls-1 {
        fill: #370617;
      }
    </style>
  </defs>
  <path class="cls-1" d="M0,0L37.08,2.78c36.94,2.78,111.53,8.33,185.14,7.41,74.03-.99,148.61-8.28,222.22-8.33,74.03,.05,148.61,7.34,222.22,11.11,74.03,3.7,148.61,3.7,222.22,2.78,74.03-.99,148.61-2.73,222.22,.92,74.03,3.65,148.61,13.02,222.22,11.11,74.03-1.91,148.61-14.76,222.22-21.3,74.03-6.48,148.61-6.48,222.22-5.56,74.03,.99,148.61,2.73,184.72,3.72l37.5,.92V50H0V0Z"/>
</svg>