<?xml version="1.0" standalone="no"?><svg xmlns="http://www.w3.org/2000/svg" viewBox="0 0 1440 320"><path fill="#0099ff" fill-opacity="1" d="M0,224L26.7,229.3C53.3,235,107,245,160,224C213.3,203,267,149,320,117.3C373.3,85,427,75,480,80C533.3,85,587,107,640,122.7C693.3,139,747,149,800,165.3C853.3,181,907,203,960,192C1013.3,181,1067,139,1120,106.7C1173.3,75,1227,53,1280,48C1333.3,43,1387,53,1413,58.7L1440,64L1440,320L1413.3,320C1386.7,320,1333,320,1280,320C1226.7,320,1173,320,1120,320C1066.7,320,1013,320,960,320C906.7,320,853,320,800,320C746.7,320,693,320,640,320C586.7,320,533,320,480,320C426.7,320,373,320,320,320C266.7,320,213,320,160,320C106.7,320,53,320,27,320L0,320Z"></path></svg>