<?xml version="1.0" encoding="UTF-8"?>
<svg id="Layer_1" data-name="Layer 1" xmlns="http://www.w3.org/2000/svg" viewBox="0 0 2000 50">
  <defs>
    <style>
      .cls-1 {
        fill: #faa307;
      }
    </style>
  </defs>
  <path class="cls-1" d="M0,50l37.08-2.78c36.94-2.78,111.53-8.33,185.14-10.19,74.03-1.79,148.61-.05,222.22-3.7,74.03-3.65,148.61-13.02,222.22-15.75,74.03-2.83,148.61,.99,222.22,7.41,74.03,6.42,148.61,15.8,222.22,12.97,74.03-2.73,148.61-17.66,222.22-19.44,74.03-1.86,148.61,9.25,222.22,10.17,74.03,.99,148.61-8.39,222.22-8.33,74.03-.05,148.61,9.32,184.72,13.89l37.5,4.64V0H0V50Z"/>
</svg>