<?xml version="1.0" standalone="no"?><svg xmlns="http://www.w3.org/2000/svg" viewBox="0 0 1440 320"><path fill="#0099ff" fill-opacity="1" d="M0,32L26.7,48C53.3,64,107,96,160,90.7C213.3,85,267,43,320,42.7C373.3,43,427,85,480,106.7C533.3,128,587,128,640,122.7C693.3,117,747,107,800,128C853.3,149,907,203,960,192C1013.3,181,1067,107,1120,69.3C1173.3,32,1227,32,1280,37.3C1333.3,43,1387,53,1413,58.7L1440,64L1440,320L1413.3,320C1386.7,320,1333,320,1280,320C1226.7,320,1173,320,1120,320C1066.7,320,1013,320,960,320C906.7,320,853,320,800,320C746.7,320,693,320,640,320C586.7,320,533,320,480,320C426.7,320,373,320,320,320C266.7,320,213,320,160,320C106.7,320,53,320,27,320L0,320Z"></path></svg>