<?xml version="1.0" standalone="no"?><svg xmlns="http://www.w3.org/2000/svg" viewBox="0 0 1440 320"><path fill="#0099ff" fill-opacity="1" d="M0,32L26.7,48C53.3,64,107,96,160,106.7C213.3,117,267,107,320,128C373.3,149,427,203,480,218.7C533.3,235,587,213,640,176C693.3,139,747,85,800,101.3C853.3,117,907,203,960,213.3C1013.3,224,1067,160,1120,154.7C1173.3,149,1227,203,1280,202.7C1333.3,203,1387,149,1413,122.7L1440,96L1440,320L1413.3,320C1386.7,320,1333,320,1280,320C1226.7,320,1173,320,1120,320C1066.7,320,1013,320,960,320C906.7,320,853,320,800,320C746.7,320,693,320,640,320C586.7,320,533,320,480,320C426.7,320,373,320,320,320C266.7,320,213,320,160,320C106.7,320,53,320,27,320L0,320Z"></path></svg>