<?xml version="1.0" standalone="no"?><svg xmlns="http://www.w3.org/2000/svg" viewBox="0 0 1440 320"><path fill="#0099ff" fill-opacity="1" d="M0,64L26.7,85.3C53.3,107,107,149,160,186.7C213.3,224,267,256,320,272C373.3,288,427,288,480,266.7C533.3,245,587,203,640,165.3C693.3,128,747,96,800,80C853.3,64,907,64,960,96C1013.3,128,1067,192,1120,186.7C1173.3,181,1227,107,1280,90.7C1333.3,75,1387,117,1413,138.7L1440,160L1440,0L1413.3,0C1386.7,0,1333,0,1280,0C1226.7,0,1173,0,1120,0C1066.7,0,1013,0,960,0C906.7,0,853,0,800,0C746.7,0,693,0,640,0C586.7,0,533,0,480,0C426.7,0,373,0,320,0C266.7,0,213,0,160,0C106.7,0,53,0,27,0L0,0Z"></path></svg>