<?xml version="1.0" encoding="UTF-8"?><svg id="Layer_1" xmlns="http://www.w3.org/2000/svg" viewBox="0 0 2000 2000"><defs><style>.cls-1{fill:#fff;}</style></defs><g><g><path class="cls-1" d="M804.246,952.023c-1.993,0-3.998-.182-5.958-.541l-.714-.131H469.961c-108.498,0-189.458-21.813-240.631-64.835l-.141-.116c-26.224-21.046-46.124-48.365-59.147-81.197-13.052-32.904-19.669-72.475-19.669-117.614V273.276c0-90.839,26.167-157.968,77.773-199.521C282.243,30.196,363.601,8.11,469.961,8.11h325.398l.267-.018c.912-.061,1.837-.092,2.75-.092,9.524,0,18.774,3.318,26.125,9.357,6.597,8.146,9.776,18.357,8.961,28.831l-.024,.31V209.684l.024,.31c.814,10.464-2.359,20.665-8.943,28.807-7.243,5.852-16.32,9.066-25.643,9.066-1.051,0-2.116-.041-3.165-.123l-.31-.024h-266.504c-2.483-.184-5-.277-7.486-.277-21.077,0-41.315,6.431-58.527,18.598l-.396,.28-.36,.327c-15.819,14.347-24.061,34.764-22.639,56.059v315.403c-1.645,20.851,6.877,41.343,22.839,54.88l.392,.332,.431,.279c17.204,11.152,37.134,17.047,57.637,17.047,2.698,0,5.429-.104,8.122-.312h267.84l.253-.016c.896-.057,1.804-.086,2.701-.086,9.556,0,18.905,3.255,26.396,9.176,7.93,8.912,11.768,20.782,10.541,32.665l-.042,.41v159.52l.142,.742c3.416,17.918-8.382,35.274-26.3,38.691-2.037,.388-4.121,.585-6.195,.585Z"/><path d="M798.376,16c7.402,0,14.597,2.487,20.413,7.03,4.959,6.44,7.332,14.389,6.699,22.538l-.048,.619V209.994l.048,.619c.632,8.128-1.727,16.058-6.661,22.489-5.709,4.372-12.738,6.764-19.949,6.764-.846,0-1.702-.033-2.544-.099l-.62-.048h-266.525c-2.58-.184-5.193-.277-7.776-.277-22.738-.001-44.574,6.937-63.145,20.065l-.793,.561-.72,.653c-17.573,15.938-26.761,38.596-25.265,62.244v314.837c-1.733,23.297,7.828,46.161,25.665,61.287l.783,.664,.862,.559c18.503,11.995,39.939,18.335,61.989,18.335,2.797,0,5.628-.105,8.423-.312h267.793l.507-.032c.727-.046,1.466-.07,2.194-.07,7.526,0,14.894,2.486,20.88,7.022,6.126,7.174,9.071,16.58,8.099,25.996l-.085,.82v160.688l.283,1.485c1.255,6.581-.128,13.256-3.894,18.796-3.766,5.54-9.464,9.283-16.044,10.537-1.545,.295-3.125,.444-4.698,.444-1.511,0-3.031-.138-4.517-.41l-1.428-.262H469.961c-53.801,0-101.062-5.424-140.467-16.119-38.513-10.453-70.481-26.212-95.016-46.839l-.139-.117-.142-.114c-25.13-20.168-44.212-46.38-56.718-77.908-12.678-31.961-19.106-70.539-19.106-114.664V273.276c0-88.298,25.163-153.33,74.791-193.29,52.639-42.385,132.31-63.876,236.798-63.876h325.666l.533-.036c.736-.049,1.481-.074,2.216-.074M798.376,0c-1.092,0-2.187,.036-3.284,.11H469.961C359.009,.11,277.2,23.986,223.128,67.524c-54.072,43.538-80.756,113.761-80.756,205.752v414.314c0,92.343,26.685,160.81,81.81,205.05,52.901,44.474,134.827,66.711,245.779,66.711h326.886c2.446,.448,4.922,.672,7.398,.672,2.576,0,5.153-.242,7.694-.727,22.286-4.249,36.909-25.761,32.659-48.047v-158.352c1.483-14.362-3.245-28.673-12.991-39.325-9.041-7.354-20.314-11.338-31.903-11.338-1.067,0-2.138,.034-3.208,.102h-267.9c-2.606,.208-5.209,.312-7.808,.312-18.854,0-37.372-5.445-53.286-15.761-14.111-11.967-21.567-30.017-20.014-48.454V322.432c-1.333-18.81,6.045-37.19,20.014-49.858,15.815-11.179,34.658-17.131,53.908-17.13,2.389,0,4.789,.092,7.185,.277h266.495c1.264,.098,2.525,.147,3.784,.147,11.413,0,22.514-4.005,31.327-11.383,8.191-9.785,12.225-22.389,11.236-35.111V46.808c.989-12.723-3.044-25.326-11.236-35.111C821.291,4.123,810,0,798.376,0h0Z"/></g><g><path class="cls-1" d="M183.404,1992c-16.095,0-29.782-11.532-32.543-27.423-.682-3.922-.652-7.895,.087-11.808l.139-.736v-864.097l-.024-.31c-.814-10.474,2.365-20.685,8.961-28.831,7.351-6.039,16.602-9.356,26.128-9.356,.913,0,1.837,.03,2.749,.092l.267,.018h410.367c117.506,0,198.916,23.337,241.963,69.357,44.375,50.371,67.21,115.047,64.291,182.119l-.008,.174v169.55l.005,.141c1.168,33.369-4.037,66.196-15.471,97.567-11.422,31.339-28.537,59.788-50.87,84.561-42.715,44.896-124.141,67.66-242.017,67.66h-160.383v229.915l.126,.701c3.258,18.144-8.852,35.556-26.996,38.814-1.944,.349-3.933,.525-5.909,.525s-3.965-.177-5.911-.525l-9.413-1.689v2.968H189.797l-.68,.118c-1.891,.328-3.813,.495-5.713,.495Zm378.361-493.377c2.759,.369,5.562,.557,8.338,.557,19.176,0,37.043-8.593,49.022-23.574l.35-.438,.286-.482c8.86-14.963,13.373-32.059,13.054-49.446v-70.069c.319-17.386-4.194-34.482-13.054-49.446l-.286-.482-.35-.438c-11.979-14.981-29.847-23.574-49.023-23.574-2.771,0-5.569,.187-8.324,.555l-127.542-.372v217.211h127.53Z"/><path d="M186.15,1057.439c.736,0,1.481,.025,2.215,.074l.534,.036h410.636c115.132,0,194.542,22.449,236.037,66.732,21.243,24.135,37.446,51.744,48.157,82.064,10.737,30.392,15.47,62.13,14.068,94.332l-.015,.348v169.865l.01,.28c1.132,32.337-3.912,64.147-14.992,94.548-11.056,30.334-27.617,57.876-49.223,81.863-41.167,43.197-120.615,65.098-236.148,65.098h-168.383v238.627l.252,1.403c1.201,6.686-.274,13.439-4.153,19.016s-9.697,9.309-16.382,10.51c-1.48,.266-2.993,.401-4.496,.401s-3.016-.135-4.496-.401l-18.828-3.38v4.533H189.107l-1.359,.236c-1.44,.25-2.902,.377-4.344,.377-12.196,0-22.567-8.745-24.661-20.793-.517-2.974-.495-5.986,.066-8.952l.278-1.473v-865.157l-.048-.619c-.634-8.148,1.739-16.098,6.699-22.538,5.815-4.543,13.011-7.03,20.412-7.03m375.124,216.344l-118.991-.348-16.047-.047v233.235h135.014c2.934,.369,5.906,.556,8.854,.556,21.62,0,41.766-9.687,55.271-26.578l.7-.875,.571-.964c9.603-16.219,14.502-34.745,14.17-53.589v-69.937c.332-18.844-4.567-37.37-14.17-53.589l-.571-.964-.7-.875c-13.504-16.89-33.649-26.577-55.271-26.578-2.939,0-5.904,.186-8.829,.553m-375.124-232.344c-11.624,0-22.915,4.124-31.827,11.697-8.191,9.785-12.225,22.389-11.236,35.111v863.037c-.915,4.842-.952,9.809-.108,14.663,3.471,19.974,20.822,34.053,40.425,34.053,2.335,0,4.704-.2,7.083-.614h206.455v-1.404c2.422,.435,4.873,.652,7.324,.652s4.902-.218,7.324-.652c22.522-4.045,37.5-25.581,33.455-48.103v-221.201h152.383c120.783,0,203.412-23.408,247.886-70.223,46.336-51.357,70.888-118.718,68.467-187.846v-169.237c2.996-68.84-20.787-136.164-66.36-187.846-44.591-47.751-127.103-71.978-247.886-71.978H189.434c-1.097-.073-2.191-.11-3.284-.11h0Zm376.167,248.347c2.602-.373,5.202-.557,7.786-.556,16.5,0,32.297,7.466,42.774,20.57,8.109,13.696,12.243,29.38,11.938,45.294v70.223c.305,15.914-3.828,31.598-11.938,45.294-10.478,13.105-26.273,20.57-42.774,20.57-2.584,0-5.186-.183-7.786-.556h-120.081v-201.188l120.081,.351h0Z"/></g></g><g><g><path class="cls-1" d="M1599.844,951.352h-224.662l-.714,.131c-1.986,.364-4.007,.548-6.005,.548-15.949,0-29.614-11.41-32.492-27.13-.738-4.035-.723-8.124,.045-12.153l.142-.742v-173.704l-205.7-275.442c-16.501-21.059-29.636-44.432-39.042-69.474-7.653-29.132-10.957-59.161-9.821-89.261l.006-.302V47.958l-.016-.253c-.669-10.521,2.551-20.822,9.076-29.08,7.776-6.841,17.731-10.601,28.104-10.601,.821,0,1.653,.024,2.473,.072l.232,.014h205.551l.267-.018c.912-.061,1.837-.092,2.75-.092,9.524,0,18.774,3.318,26.126,9.357,6.596,8.146,9.775,18.356,8.961,28.831l-.024,.31v248.632l.048,.434c1.244,11.381,5.493,22.259,12.291,31.472l63.923,95.708c3.98,7.446,9.312,13.934,15.854,19.288l.254,.208,.27,.186c6.35,4.382,13.782,6.698,21.494,6.698,.358,0,.718-.005,1.076-.015h13.103c.359,.01,.719,.015,1.077,.015,7.712,0,15.145-2.316,21.494-6.697l.27-.187,.254-.208c6.569-5.377,11.919-11.897,15.905-19.384l60.829-96.487c6.458-9.25,10.544-20.055,11.819-31.264l.051-.451V47.902l-.024-.31c-.813-10.471,2.362-20.678,8.954-28.822,7.396-6.04,16.691-9.357,26.253-9.357,.881,0,1.773,.028,2.653,.085l.255,.016h202.051l.255-.016c.88-.057,1.772-.085,2.654-.085,9.542,0,18.818,3.305,26.208,9.322,6.467,8.239,9.656,18.497,8.99,28.969l-.017,.253V303.986l.007,.163c1.229,30.103-2.184,60.093-10.146,89.149-9.697,24.894-22.754,48.335-38.814,69.685l-202.795,277.47v172.604l.142,.742c3.416,17.918-8.382,35.274-26.299,38.691-1.84,.351-3.719,.545-5.594,.58v-1.719Z"/><path d="M1330.036,16c7.402,0,14.598,2.487,20.413,7.03,4.959,6.439,7.332,14.389,6.698,22.538l-.048,.619v249.379l.095,.867c1.391,12.723,6.124,24.885,13.694,35.199l63.608,95.238c4.46,8.232,10.396,15.413,17.651,21.352l.507,.415,.539,.372c7.691,5.308,16.695,8.114,26.04,8.114,.394,0,.788-.005,1.183-.015h12.886c.395,.01,.79,.015,1.184,.015,9.344,0,18.349-2.806,26.04-8.114l.539-.372,.507-.415c7.314-5.987,13.286-13.234,17.758-21.55l60.581-96.094c7.152-10.301,11.679-22.318,13.096-34.78l.103-.901V47.591l-.048-.619c-.633-8.141,1.735-16.084,6.685-22.52,5.862-4.549,13.103-7.039,20.545-7.039,.711,0,1.432,.023,2.143,.069l.51,.033h202.563l.511-.033c.71-.046,1.431-.069,2.142-.069,7.405,0,14.612,2.466,20.458,6.972,4.885,6.564,7.277,14.607,6.755,22.812l-.032,.507V304.15l.013,.326c1.19,29.141-2.092,58.173-9.758,86.308-9.416,24.067-22.064,46.737-37.602,67.39l-.066,.088-.065,.089-201.188,275.273-3.082,4.218v175.972l.283,1.485c1.255,6.581-.128,13.256-3.894,18.796-2.998,4.411-7.222,7.683-12.14,9.466v-.21h-233.387l-1.429,.262c-1.512,.277-3.048,.417-4.564,.417-12.085,0-22.441-8.651-24.623-20.57-.56-3.059-.549-6.159,.034-9.214l.283-1.485v-177.117l-3.18-4.259-203.997-273.166-.111-.149-.115-.146c-15.913-20.307-28.596-42.834-37.705-66.967-7.379-28.245-10.562-57.354-9.46-86.53l.011-.302V47.705l-.032-.507c-.528-8.3,1.926-16.433,6.925-23.038,6.231-5.255,14.092-8.135,22.272-8.135,.667,0,1.343,.02,2.01,.058l.464,.027h206.049l.533-.036c.736-.049,1.481-.074,2.216-.074M1330.036,0c-1.092,0-2.187,.036-3.284,.11h-205.05c-.981-.057-1.96-.085-2.938-.085-12.504,0-24.607,4.639-33.929,13.077-8.031,9.873-12.043,22.411-11.236,35.112v255.611c-1.17,30.999,2.261,61.999,10.182,91.992,9.691,25.92,23.31,50.196,40.378,71.978l203.997,273.166v170.29c-.95,4.984-.969,10.101-.055,15.092,3.628,19.816,20.91,33.689,40.362,33.689,2.455,0,4.944-.221,7.445-.679h215.935v1.054c2.446,.448,4.922,.672,7.398,.672,2.576,0,5.153-.242,7.694-.727,22.286-4.249,36.909-25.761,32.659-48.047v-169.237l201.188-275.273c16.582-22.042,30.051-46.262,40.027-71.978,8.247-29.935,11.801-60.968,10.533-91.992V48.212c.807-12.701-3.205-25.239-11.236-35.112-8.96-7.569-20.285-11.688-31.946-11.688-1.052,0-2.109,.034-3.166,.101h-201.539c-1.057-.068-2.113-.101-3.166-.101-11.66,0-22.987,4.12-31.946,11.688-8.191,9.785-12.225,22.389-11.236,35.112v245.779c-1.135,9.982-4.757,19.519-10.533,27.738l-61.094,96.907c-3.482,6.617-8.258,12.468-14.045,17.204-4.99,3.444-10.903,5.282-16.951,5.282-.318,0-.637-.005-.955-.015h-13.343c-.319,.01-.637,.015-.955,.015-6.047,0-11.962-1.838-16.952-5.282-5.786-4.736-10.562-10.587-14.045-17.204l-64.254-96.205c-6.028-8.115-9.785-17.689-10.884-27.738V46.808c.989-12.723-3.044-25.326-11.236-35.111C1352.951,4.124,1341.661,0,1330.036,0h0Z"/></g><g><path class="cls-1" d="M1496.82,1992c-5.972,0-12.027-.063-17.999-.188l-.164-.004-.166,.004c-5.867,.119-11.817,.18-17.687,.18-62.257,0-124.666-6.732-185.495-20.011-44.911-9.469-86.638-27.671-124.081-54.115-27.554-20.925-48.189-49.233-59.68-81.873-12.664-34.761-19.116-71.057-19.208-107.964v-454.672c.082-37.121,6.536-73.658,19.184-108.578,12.093-32.79,33.362-61.148,61.491-81.966,36.684-26.75,77.839-45.195,122.276-54.789,60.849-13.282,123.26-20.015,185.518-20.015,5.867,0,11.816,.061,17.683,.18h.329c5.972-.125,12.027-.188,18-.188,61.921,0,123.983,6.734,184.465,20.017,44.938,9.51,86.548,27.946,123.729,54.811,27.882,20.91,49.01,49.234,61.108,81.922,12.042,34.993,17.91,71.499,17.441,108.506v454.901c.498,36.896-5.37,73.282-17.442,108.152-12.013,32.629-33.122,60.818-61.056,81.528-37.391,26.336-79.024,44.552-123.741,54.138-60.519,13.291-122.582,20.025-184.505,20.025Zm-139.927-312.133c-.354,19.545,7.957,38.037,22.812,50.748l.624,.534,.718,.396c23.734,13.069,50.602,19.978,77.699,19.979h.004c6.039,0,12.142-.346,18.153-1.026,5.961,.667,12.014,1.005,18.006,1.005,27.13,0,54.043-6.899,77.829-19.951l.725-.397,.628-.538c14.855-12.71,23.167-31.202,22.812-50.747v-358.409c.021-19.102-8.294-37.188-22.812-49.615l-.628-.538-.726-.398c-23.787-13.053-50.701-19.951-77.832-19.951-5.991,0-12.042,.338-18.003,1.004-6.011-.681-12.114-1.026-18.156-1.026-27.095,0-53.964,6.909-77.7,19.979l-.719,.396-.624,.534c-14.517,12.426-22.831,30.513-22.812,49.624v358.399Z"/><path d="M1496.824,1016c61.344,0,122.828,6.672,182.745,19.831l.06,.013,.06,.013c43.755,9.258,84.32,27.226,120.576,53.408,26.597,19.964,46.761,46.989,58.322,78.169,11.722,34.097,17.434,69.663,16.977,105.719v455.111c.486,35.941-5.227,71.388-16.978,105.356-11.467,31.101-31.591,57.974-58.206,77.731-36.485,25.684-77.103,43.448-120.733,52.8l-.039,.009-.039,.009c-59.917,13.159-121.403,19.831-182.748,19.831-5.915,0-11.915-.063-17.833-.187l-.33-.007-.33,.007c-5.819,.118-11.714,.178-17.521,.178-61.687,0-123.524-6.671-183.792-19.827l-.056-.012-.056-.012c-43.738-9.221-84.429-26.962-120.948-52.73-26.248-19.968-45.908-46.961-56.861-78.075l-.029-.082-.03-.082c-12.315-33.804-18.606-69.186-18.696-105.124v-454.656c.08-36.194,6.366-71.799,18.685-105.832,11.564-31.337,31.863-58.405,58.706-78.285,35.811-26.104,75.93-44.08,119.285-53.439,60.268-13.156,122.105-19.827,183.792-19.827,5.811,0,11.706,.06,17.52,.178l.33,.007,.33-.007c5.914-.124,11.914-.187,17.833-.187h.002m-147.931,663.802c-.374,21.912,8.955,42.64,25.612,56.892l1.247,1.067,1.438,.792c24.915,13.719,53.117,20.971,81.559,20.971,6.042,0,12.143-.329,18.163-.979,5.965,.635,12.011,.957,17.998,.957,28.473,0,56.717-7.24,81.679-20.938l1.449-.795,1.256-1.075c16.657-14.252,25.986-34.98,25.611-56.892v-358.326c.023-21.453-9.311-41.759-25.609-55.71l-1.257-1.076-1.451-.796c-24.961-13.697-53.205-20.937-81.679-20.938-5.985,0-12.031,.321-17.998,.957-6.019-.649-12.12-.978-18.162-.978-28.442,0-56.644,7.252-81.559,20.971l-1.439,.792-1.248,1.068c-16.297,13.951-25.631,34.256-25.609,55.693v358.343m147.929-679.802c-6.054,0-12.112,.063-18.168,.19-5.95-.121-11.897-.181-17.846-.181-62.927,0-125.692,6.767-187.205,20.195-45.247,9.768-87.946,28.905-125.348,56.178-29.306,21.689-51.638,51.465-64.254,85.672-12.926,35.689-19.578,73.346-19.662,111.303v454.692c.094,37.728,6.748,75.152,19.662,110.601,11.991,34.062,33.724,63.853,62.498,85.672,38.144,26.961,81.397,45.84,127.103,55.476,61.517,13.429,124.274,20.195,187.205,20.195,5.944,0,11.899-.06,17.846-.181,6.06,.127,12.109,.19,18.168,.19,62.586,0,125.016-6.771,186.18-20.204,45.556-9.765,88.669-28.635,126.752-55.476,29.165-21.6,51.377-51.257,63.903-85.321,12.357-35.666,18.417-73.209,17.907-110.952v-454.692c.48-37.855-5.578-75.509-17.907-111.303-12.609-34.114-34.799-63.862-63.903-85.672-37.865-27.37-81.042-46.507-126.752-56.178-61.168-13.434-123.59-20.204-186.18-20.204h0Zm-38.074,743.524c-25.721,0-51.139-6.486-73.841-18.987-13.002-11.125-20.344-27.483-20.013-44.591v-358.487c-.018-16.741,7.296-32.651,20.013-43.538,22.706-12.503,48.117-18.987,73.842-18.987,6.042,0,12.106,.358,18.15,1.08,6.001-.708,12.011-1.058,18.01-1.058,25.765,0,51.226,6.478,73.982,18.965,12.718,10.887,20.031,26.797,20.013,43.538v358.487c.33,17.108-7.012,33.467-20.013,44.591-22.758,12.488-48.215,18.965-73.982,18.965-5.996,0-12.01-.351-18.01-1.058-6.048,.722-12.105,1.08-18.151,1.08h0Z"/></g></g></svg>