<?xml version="1.0" encoding="UTF-8"?><svg id="Layer_1" xmlns="http://www.w3.org/2000/svg" viewBox="0 0 3256 457"><defs><style>.cls-1{fill:#fff;}</style></defs><path class="cls-1" d="M0,450.29c54.914-48.554,47.195-112.967,63.933-168.288,12.484-41.258,17.642-84.678,27.733-126.735,5.951-24.805,8.353-46.68-29.757-61.936,16.83-2.669,23.725-4.643,30.638-4.709,33.535-.32,67.078-.511,100.61-.045,94.348,1.311,141.844,50.572,137.95,144.952-2.153,52.179-16.803,101.033-49.645,142.778-36.76,46.726-84.644,72.923-144.772,73.851-43.281,.668-86.581,.13-136.691,.13h0Zm82.986-26.605c85.86,7.884,139.118-18.733,169.28-93.511,15.338-38.026,22.346-81.957,22.108-123.155-.409-70.761-53.405-106.302-123.981-89.806-22.309,101.427-44.666,203.079-67.406,306.473Z"/><path class="cls-1" d="M1318.39,243.54c22.003-17.782,37.335-33.483,55.578-44.252,43.07-25.426,82.328-7.998,95.556,40.355,17.28,63.166-13.726,155.335-66.016,194.288-35.392,26.365-73.764,28.969-114.725,13.754-8.229-3.057-18.768-.894-28.073,.243-8.151,.996-16.065,3.932-24.084,6.011-.516-8.258-2.951-16.934-1.255-24.71,21.147-96.986,43.184-193.779,64.285-290.776,5.323-24.471,17.043-52.881-23.317-64.296h85.021c-13.73,54.123-27.608,108.83-42.97,169.383h0Zm110.929,31.838c-9.407-17.384-14.931-43.896-30.221-52.015-22.821-12.118-40.394,11.619-55.382,28.485-32.901,37.023-46.121,82.193-48.518,130.106-.725,14.487,5.638,38.012,15.386,42.29,14.361,6.304,37.866,4.428,51.613-3.782,16.544-9.88,31.461-28.165,38.978-46.191,12.251-29.379,17.934-61.498,28.145-98.893h-.001Z"/><path class="cls-1" d="M2629.791,92.668v230.717c14.662-5.716,26.322-8.503,35.945-14.539,8.574-5.378,14.893-14.35,22.208-21.736,2.089,1.747,4.178,3.495,6.268,5.242v50.207h-63.271c.556,39.145-15.564,78.516,29.246,104.515h-115.77c48.497-25.195,37.448-63.593,36.567-103.196h-150.732c5.836-14.119,8.385-24.374,13.812-32.77,44.383-68.666,88.319-137.669,134.965-204.78,8.367-12.039,28.589-15.838,43.338-23.442,2.476,3.261,4.952,6.521,7.427,9.782h-.001Zm-48.887,225.662V164.791c-1.613-.659-3.225-1.317-4.838-1.975-31.312,50.751-62.623,101.5-95.948,155.514h100.786Z"/><path class="cls-1" d="M3002.233,399.129c1.268,4.926,6.596,13.55,4.231,18.493-11.384,23.798-61.415,45.807-84.393,37.141-28.211-10.639-26.873-34.818-23.193-57.196-17.916,15.797-34.543,34.726-54.985,47.597-43.502,27.392-84.449,9.623-98.008-39.821-17.614-64.228,14.769-157.411,69.08-195.896,34.945-24.763,72.671-26.222,112.538-11.841,8.817,3.18,20.276-.449,30.432-1.667,7.314-.877,14.484-2.957,21.719-4.5,.906,7.282,3.852,15.003,2.392,21.775-11.185,51.888-24.507,103.35-34.294,155.484-3.334,17.759,1.56,37.062,2.694,55.66,15.227-7.418,30.455-14.836,51.788-25.229h0Zm-217.358-28.709c9.476,17.706,14.666,42.446,29.444,51.452,21.622,13.175,39.53-8.481,53.943-24.353,36.621-40.328,52.819-89.077,53.763-142.72,.612-34.81-18.705-48.441-51.909-37.288-11.582,3.89-23.233,10.965-31.896,19.563-35.843,35.577-43.254,81.949-53.344,133.347h-.001Z"/><path class="cls-1" d="M3256,199.36c-.865,54.986-5.885,62.818-30.551,59.642-12.093-17.387-20.918-41.386-30.809-41.834-18.039-.816-41.536,7.592-54.22,20.525-39.377,40.148-50.608,92.57-48.022,147.08,1.509,31.799,24.804,47.677,56.065,38.984,22.182-6.168,42.638-18.543,66.665-29.415,2.15,2.272,7.09,7.491,12.732,13.451-34.03,37.747-74.27,53.793-122.7,47.764-33.183-4.131-57.124-30.617-60.506-70.222-4.8-56.214,9.594-107.838,46.882-150.973,40.176-46.476,105.977-59.629,164.463-35.001h0Z"/><path class="cls-1" d="M1551.986,59.234c-11.661-34.528-1.235-47.799,22.766-51.428,22.278-3.368,44.697-6.814,67.154-7.722,25.028-1.012,48.401,7.142,59.115,31.271,10.929,24.611,9.054,51.024-9.093,72.318-21.054,24.707-44.488,47.377-66.697,71.11-11.836,12.648-23.267,25.674-38.583,42.628,46.398,1.892,87.128,9.753,120.991-26.807,1.322,2.377,2.645,4.754,3.967,7.131-1.299,16.285-2.599,32.57-3.992,50.038h-171.22c12.598-20.882,21.101-39.359,33.549-54.617,20.512-25.142,44.262-47.62,65.277-72.382,10.65-12.549,21.635-26.574,26.518-41.836,6.882-21.51,4.736-44.051-19.742-55.573-22.709-10.689-41.264-3.068-58.115,14.517-8.012,8.361-19.579,13.315-31.896,21.352h0Z"/><path class="cls-1" d="M898.304,339.402c.464,10.362,.888,19.823,1.421,31.712h-329.123v-31.712h327.702Z"/><path class="cls-1" d="M570.577,253.394v-33.05h327.099v33.05h-327.099Z"/><path class="cls-1" d="M1926.303,311.746v-31.35h328.477c.5,9.865,.98,19.349,1.588,31.35h-330.065Z"/></svg>