<?xml version="1.0" encoding="UTF-8"?><svg id="Layer_1" xmlns="http://www.w3.org/2000/svg" viewBox="0 0 4000 4000"><defs><style>.cls-1{fill:#fff;}</style></defs><path class="cls-1" d="M3206.605,3122.447v32.329H1651.345c-.471-9.738-.966-19.964-1.564-32.329h1556.825Z"/><path class="cls-1" d="M3.796,1966.672c54.914-48.554,47.195-112.968,63.934-168.289,12.484-41.258,17.642-84.679,27.733-126.736,5.951-24.805,8.353-46.68-29.757-61.936,16.83-2.669,23.725-4.643,30.638-4.709,33.535-.32,67.079-.511,100.611-.045,94.349,1.311,141.845,50.572,137.951,144.953-2.153,52.179-16.803,101.034-49.645,142.779-36.76,46.726-84.645,72.924-144.773,73.852-43.281,.668-86.582,.13-136.692,.13Zm82.987-26.606c85.861,7.884,139.119-18.733,169.281-93.512,15.338-38.026,22.346-81.958,22.108-123.156-.409-70.762-53.405-106.303-123.982-89.807-22.309,101.428-44.666,203.081-67.407,306.475Z"/><path class="cls-1" d="M3757.705,698.864c8.117-39.128,12.75-79.407,25.198-117.105,17.045-51.618,55.226-74.096,108.895-72.09,44.708,1.671,77.623,27.133,92.005,77.747,22.577,79.448,23.693,159.353-10.387,236.244-20.286,45.767-58.854,63.67-108.243,59.593-44.781-3.697-72.126-29.728-85.493-70.143-7.936-23.995-11.457-49.589-15.381-74.712-1.952-12.491-.34-25.539-.34-38.335l-6.255-1.199Zm189.884,1.465c-6.288-41.198-10.763-82.259-19.361-122.438-5.128-23.961-19.63-43.923-48.376-44.005-28.718-.082-43.154,20.044-49.156,43.609-20.297,79.68-20.131,159.915,2.077,239.304,6.716,24.007,21.431,42.843,50.015,42.324,27.312-.496,41.603-19.261,46.54-42.193,8.232-38.233,12.341-77.355,18.262-116.602Z"/><path class="cls-1" d="M1322.197,1759.92c22.003-17.782,37.335-33.483,55.578-44.252,43.07-25.426,82.329-7.998,95.557,40.355,17.28,63.166-13.726,155.336-66.017,194.29-35.392,26.365-73.765,28.969-114.726,13.754-8.229-3.057-18.768-.894-28.073,.243-8.151,.996-16.065,3.932-24.084,6.011-.516-8.258-2.951-16.934-1.255-24.71,21.147-96.987,43.184-193.781,64.285-290.778,5.323-24.471,17.043-52.881-23.317-64.297h85.022c-13.73,54.123-27.608,108.831-42.97,169.384Zm110.93,31.839c-9.407-17.384-14.931-43.896-30.221-52.015-22.821-12.118-40.394,11.619-55.382,28.485-32.901,37.023-46.121,82.194-48.518,130.107-.725,14.487,5.638,38.012,15.386,42.29,14.361,6.304,37.866,4.428,51.613-3.782,16.544-9.88,31.461-28.165,38.978-46.191,12.251-29.379,17.934-61.498,28.145-98.894Z"/><path class="cls-1" d="M1578.767,867.761c-13.027,6.004-24.717,11.392-45.33,20.893,9.444-45.017,16.721-81.021,24.583-116.897,15.12-69.001,29.983-138.068,46.184-206.818,6.253-26.536,11.305-50.574-23.326-63.962h84.756c-14.37,56.61-28.773,113.35-43.949,173.136,17.235-15.616,30.972-30.703,47.21-42.282,49.857-35.552,99.668-13.539,107.012,47.161,6.369,52.646-4.946,101.875-34.621,146.023-40.374,60.064-94.355,73.421-162.519,42.746Zm156.802-161.335c-10.625-20.398-15.769-47.468-31.024-55.625-24.317-13.001-41.948,11.747-57.702,29.371-31.729,35.494-43.139,79.547-48.124,124.747-1.688,15.309,4.477,39.897,15.175,45.997,12.949,7.383,36.125,3.618,51.856-2.765,13.157-5.339,26.17-19.604,31.879-33.045,14.38-33.861,24.599-69.489,37.941-108.681Z"/><path class="cls-1" d="M2633.608,1609.047v230.719c14.662-5.716,26.322-8.503,35.945-14.539,8.574-5.378,14.893-14.35,22.208-21.736,2.089,1.747,4.178,3.495,6.268,5.242v50.207h-63.272c.556,39.145-15.564,78.517,29.246,104.516h-115.771c48.497-25.195,37.448-63.593,36.567-103.197h-150.733c5.836-14.119,8.385-24.374,13.812-32.77,44.383-68.667,88.32-137.67,134.966-204.782,8.367-12.039,28.589-15.838,43.338-23.442,2.476,3.261,4.952,6.521,7.427,9.782Zm-48.887,225.664v-153.54c-1.613-.659-3.225-1.317-4.838-1.975-31.312,50.751-62.623,101.501-95.949,155.515h100.787Z"/><path class="cls-1" d="M3006.053,1915.511c1.268,4.926,6.596,13.55,4.231,18.493-11.384,23.798-61.415,45.807-84.394,37.141-28.211-10.639-26.873-34.818-23.193-57.196-17.916,15.797-34.543,34.726-54.985,47.597-43.502,27.392-84.45,9.623-98.009-39.821-17.614-64.228,14.769-157.412,69.08-195.898,34.945-24.763,72.672-26.222,112.539-11.841,8.817,3.18,20.276-.449,30.432-1.667,7.314-.877,14.484-2.957,21.719-4.5,.906,7.282,3.852,15.003,2.392,21.775-11.185,51.888-24.507,103.351-34.294,155.485-3.334,17.759,1.56,37.062,2.694,55.66,15.227-7.418,30.455-14.836,51.788-25.229Zm-217.36-28.71c9.476,17.706,14.666,42.446,29.444,51.452,21.622,13.175,39.53-8.481,53.943-24.353,36.621-40.328,52.819-89.078,53.763-142.721,.612-34.81-18.705-48.441-51.909-37.288-11.582,3.89-23.233,10.965-31.896,19.563-35.843,35.577-43.254,81.95-53.344,133.348Z"/><path class="cls-1" d="M263.724,618.594c-14.274,65.1-28.477,126.165-40.527,187.651-2.738,13.97,1.983,29.401,3.27,44.159,13.247-6.556,26.537-13.027,39.704-19.739,2.575-1.313,4.674-3.562,10.616-8.219,3.135,7.964,9.665,16.203,7.725,21.058-8.916,22.313-56.415,44.653-80.863,39.255-30.19-6.667-28.12-31.129-28.241-64.119-16.248,18.395-26.504,32.289-39.033,43.683-21.862,19.882-48.525,28.084-76.64,17.479-28.303-10.676-37.088-36.487-39.045-64.351-4.482-63.811,10.747-121.45,57.729-167.221,33.237-32.38,73.552-40.996,117.235-25.827,17.187,5.968,31.822,13.129,46.98-3.418,2.535-2.768,10.687-.39,21.092-.39ZM62.519,795.456c9.374,18.06,14.459,44.975,29.695,53.29,24.299,13.262,42.315-11.378,57.661-29.017,32.176-36.983,47.415-81.346,49.078-129.448,.504-14.574-5.923-38.066-15.704-42.265-14.339-6.156-37.297-3.545-51.537,4.388-15.924,8.871-30.672,25.931-37.975,42.86-12.986,30.103-19.978,62.792-31.218,100.192Z"/><path class="cls-1" d="M273.269,3033.877c-5.42,56.795-9.486,60.712-44.103,38.641-20.876,24.96-42.912,49.911-62.952,76.374-4.32,5.705-3.107,17.174-1.554,25.446,4.168,22.195,8.637,44.504,15.568,65.933,3.269,10.107,12.454,18.301,18.958,27.362,8.403-6.08,16.942-11.984,25.138-18.33,3.019-2.338,5.232-5.718,16.487-9.226,.444,8.04,4.414,19.004,.644,23.552-9.805,11.829-21.604,23.662-35.141,30.402-30.086,14.98-55.076,3.854-65.339-27.767-6.342-19.54-9.891-39.986-14.986-61.243C85.699,3236.221,76.501,3311.689,0,3296.307c2.605-14.181,2.865-27.492,7.985-38.553,2.638-5.7,18.98-11.917,20.516-10.199,14.322,16.016,22.853,3.332,30.748-5.6,17.614-19.928,34.859-40.281,50.702-61.613,4.556-6.133,6.365-16.643,5.021-24.38-3.859-22.221-9.312-44.234-15.359-65.99-9.232-33.216-18.552-35.082-42.948-11.69-5.406,5.184-15.308,5.678-24.772,4.006,15.679-30.009,34.472-55.027,70.191-50.146,51.135,6.987,34.973,56.771,52.112,86.427,37.028-30.637,47.689-98.375,119.072-84.692Z"/><path class="cls-1" d="M302.83,881.378c8.72-59.882,9.932-61.028,45.138-38.79,21.992-26.594,44.929-53.347,66.418-81.215,3.922-5.086,3.515-14.971,2.374-22.21-2.752-17.454-6.701-34.757-10.92-51.935-11.132-45.319-15.785-46.616-51.635-18.765-4.408,3.425-13.774,.467-25.615,.467,18.886-30.956,36.809-54.189,70.873-52.445,56.472,2.892,38.854,56.846,56.733,86.564,37.014-31.74,48.605-98.199,120.098-84.614-1.785,12.513-2.639,23.02-4.887,33.221-3.491,15.846-9.706,25.931-28.076,13.299-4.122-2.835-15.418-1.725-18.773,1.883-19.435,20.896-38.464,42.359-55.375,65.293-4.802,6.512-4.048,18.945-2.392,28.034,4.044,22.201,9.075,44.358,15.825,65.869,2.978,9.492,9.83,22.676,17.242,24.439,6.912,1.644,17.128-9.313,25.428-15.358,3.815-2.779,6.524-7.075,15.294-16.93,2.968,12.561,8.202,21.379,5.768,26.673-11.826,25.729-44.444,42.333-70.95,38.138-28.8-4.559-31.837-29.019-37.964-50.44-3.967-13.87-5.921-28.315-9.007-43.648-40.452,32.698-49.844,105.718-125.597,92.472Z"/><path class="cls-1" d="M2048.492,820.242c4.125,9.488,10.683,17.102,9.147,22.347-6.296,21.504-41.873,41.479-66.74,40.892-28.196-.666-35.632-20.952-41.482-42.453-4.561-16.766-7.577-33.952-11.494-51.932-40.341,32.506-49.672,105.606-128.237,91.755,5.505-18.007,9.725-34.463,16.564-49.747,.629-1.405,17.973,4.668,33.555,8.897,19.885-24.057,42.819-50.815,64.301-78.693,3.915-5.081,3.459-14.976,2.313-22.221-2.759-17.454-6.696-34.758-10.92-51.936-11.118-45.216-15.657-46.457-51.663-18.622-4.418,3.415-13.757,.466-24.056-6.468,11.184-11.667,21.004-25.183,33.818-34.642,33.253-24.548,65.997-13.56,78.312,25.454,5.175,16.394,8.25,33.451,12.559,51.374,38.807-32.485,49.395-100.371,121.459-85.33-1.736,12.09-2.583,22.613-4.865,32.815-3.54,15.827-9.7,25.644-28.176,13.28-4.391-2.939-16.797-.475-20.905,3.867-18.256,19.294-35.779,39.483-51.468,60.887-4.935,6.732-5.745,18.676-4.238,27.518,3.955,23.2,9.204,46.315,16.058,68.819,2.887,9.477,9.878,22.668,17.264,24.372,6.956,1.606,17.112-9.364,25.408-15.422,3.808-2.78,6.531-7.044,13.485-14.811Z"/><path class="cls-1" d="M2789.311,2964.009c32.648-113.331,63.362-219.946,94.377-327.611h313.613c4.068,22.266,4.071,22.878-16.64,22.959-72.964,.289-145.93,.062-218.894,.141q-60.574,.065-77.111,56.938c-27.033,93.453-53.669,187.023-81.303,280.297-2.603,8.787-11.123,15.822-16.895,23.67-6.998-6.961-16.529-12.698-20.578-21.083-23.918-49.534-46.562-99.684-68.745-147.698-13.984,2.216-25.733,4.077-37.481,5.939-.843-3.92-1.687-7.839-2.531-11.759,20.005-9.393,40.011-18.786,64.07-30.083,21.959,47.804,43.413,94.508,68.117,148.29Z"/><path class="cls-1" d="M2929.755,2972.957c9.213-20.616,18.75-36.034,23.084-52.797,11.773-45.538,22.738-91.395,31.056-137.659,3.077-17.112-2.129-35.713-4.158-61.181,40.181,3.144,87.93,2.656,133.762,11.788,37.437,7.459,53.934,40.376,57.273,77.505,7.735,86.025-55.934,158.737-142.302,162.126-33.804,1.327-67.703,.217-98.714,.217Zm57.487-19.142c45.507,2.685,84.925-4.056,111.406-42.281,28.334-40.901,38.526-86.121,19.985-133.84-9.416-24.234-50.604-41.93-75.075-34.64-5.181,1.543-11.405,7.991-12.604,13.221-14.856,64.803-28.869,129.799-43.712,197.541Z"/><path class="cls-1" d="M1167.426,706.285v-153.151h38.589v150.567h144.931v36.408h-143.471v153.36h-38.534v-151.251h-144.512c-.585-12.724-1.052-22.888-1.652-35.933h144.65Z"/><path class="cls-1" d="M2451.393,704.958h144.515c.519,11.868,.963,22.023,1.534,35.082h-143.614v153.123h-39.654v-150.676h-144.899v-36.411h143.592v-153.327h38.526v152.209Z"/><path class="cls-1" d="M1958.792,2973.419c15.173-69.448,30.255-138.31,45.252-207.191,7.391-33.945,6.844-35.579-19.532-57.256h70.921c-7.25,33.011-14.51,66.072-23.063,105.017,15.805-11.915,26.235-21.533,38.213-28.48,36.59-21.221,68.904-6.765,78.335,34.152,18.165,78.806-41.03,162.118-113.619,159.334-24.157-.927-48.252-3.465-76.508-5.576Zm51.279-41.717c2.965,5.133,7.377,22.236,14.925,23.755,13.438,2.703,32.415,.543,42.656-7.629,35.948-28.684,44.866-70.694,42.149-113.836-2.154-34.198-23.488-41.632-50.087-19.617-34.232,28.332-43.705,68.235-49.642,117.327Z"/><path class="cls-1" d="M3259.822,1715.74c-.865,54.986-5.885,62.819-30.551,59.643-12.093-17.387-20.918-41.386-30.809-41.834-18.039-.816-41.536,7.592-54.22,20.525-39.377,40.148-50.609,92.571-48.022,147.081,1.509,31.799,24.804,47.677,56.066,38.984,22.182-6.168,42.638-18.543,66.665-29.415,2.15,2.272,7.09,7.491,12.732,13.451-34.03,37.747-74.271,53.793-122.701,47.764-33.183-4.131-57.124-30.617-60.506-70.223-4.8-56.214,9.594-107.839,46.882-150.974,40.176-46.476,105.978-59.629,164.464-35.001Z"/><path class="cls-1" d="M2998.186,624.284c-4.656,22.702-8.57,41.787-12.751,62.175-9.85,.54-18.404,1.008-28.51,1.562-1.518-7.719-3.138-14.135-3.997-20.65-3.034-22.999-17.328-30.761-37.696-24.531-12.688,3.881-26.568,10.433-35.154,20.04-40.481,45.293-54.083,99.658-45.962,159.058,3.792,27.737,26.479,34.894,49.026,29.564,23.259-5.498,44.846-18.07,72.035-29.615,10.298,4.736,14.588,12.948-1.053,26.539-32.492,28.235-69.851,40.288-112.229,33.892-35.452-5.351-58.592-35.175-59.465-81.043-1.045-54.903,14.391-105.565,53.61-145.898,45.486-46.778,101.111-45.538,162.145-31.093Z"/><path class="cls-1" d="M2598.522,3553.089c19.775-12.818,31.57-20.463,47.864-31.023,.955,8.127,4.549,16.896,1.893,19.659-17.328,18.032-37.451,36.579-63.917,27.582-12.162-4.135-19.632-22.068-29.978-34.654-8.055,6.674-20.17,19.526-34.754,28.25-37.63,22.51-76.166,4.285-80.954-38.813-5.504-49.539,6.25-95.937,45.828-127.909,18.299-14.782,45.055-22.463,69.041-25.87,23.077-3.277,47.526,3.116,75.486,5.63-4.182,54.189-31.34,109.377-30.507,177.148Zm-127.484-53.297c10.196,18.369,14.891,38.706,26.134,43.418,9.424,3.948,32.382-6.661,39.018-17.28,16.768-26.837,30.583-56.446,39.695-86.717,4.077-13.544-.744-37.96-10.695-45.788-19.311-15.192-42.495-2.112-53.107,15.586-16.703,27.855-27.264,59.393-41.045,90.782Z"/><path class="cls-1" d="M681.244,646.111c48.348-2.15,90.006,11.282,122.932-31.24,1.469,3.526,2.938,7.053,4.407,10.579-1.86,16.089-3.72,32.179-5.679,49.124h-172.674c19.743-28.241,34.378-51.96,51.843-73.373,17.389-21.32,38.404-39.653,56.263-60.63,8.698-10.216,15.61-22.828,20.173-35.493,7.825-21.719,2.807-41.96-17.991-53.665-21.658-12.189-41.239-5.417-58.711,11.635-8.829,8.617-20.072,14.762-32.042,23.326-12.77-33.789-2.672-48.057,22.775-51.817,23.242-3.435,46.834-7.861,70.107-7.058,54.404,1.878,80.374,51.095,49.698,96.188-17.525,25.761-41.728,46.984-62.979,70.201-13.927,15.215-27.951,30.341-48.121,52.223Z"/><path class="cls-1" d="M1555.794,1575.613c-11.661-34.528-1.235-47.799,22.766-51.428,22.278-3.368,44.697-6.814,67.154-7.722,25.028-1.012,48.401,7.142,59.116,31.271,10.929,24.611,9.054,51.024-9.093,72.319-21.054,24.707-44.488,47.377-66.698,71.111-11.836,12.648-23.267,25.674-38.583,42.628,46.398,1.892,87.129,9.753,120.992-26.807,1.322,2.377,2.645,4.754,3.967,7.131-1.299,16.285-2.599,32.57-3.992,50.038h-171.221c12.598-20.882,21.101-39.359,33.549-54.617,20.512-25.142,44.262-47.62,65.278-72.383,10.65-12.549,21.635-26.574,26.518-41.836,6.882-21.51,4.736-44.051-19.742-55.573-22.709-10.689-41.264-3.068-58.115,14.517-8.012,8.361-19.579,13.315-31.896,21.352Z"/><path class="cls-1" d="M643.238,3375.28c46.203-2.062,87.817,11.325,120.806-31.001,1.462,3.461,2.924,6.923,4.386,10.385-1.454,16.249-2.908,32.499-4.408,49.266h-171.328c12.991-21.248,21.687-39.709,34.228-55.023,20.562-25.105,44.21-47.659,65.37-72.308,10.112-11.778,20.481-24.864,25.425-39.189,7.397-21.435,6.319-44.186-17.166-56.711-23.268-12.409-42.906-4.829-60.551,14.02-7.794,8.325-19.704,12.798-30.956,19.769-13.13-32.822-2.254-46.488,22.93-50.575,21.272-3.453,42.741-6.6,64.228-7.593,26.106-1.206,50.672,6.479,61.677,31.953,11.154,25.818,8.022,52.852-11.563,74.63-28.974,32.217-59.289,63.227-88.953,94.826-3.328,3.544-6.136,7.577-14.125,17.55Z"/><path class="cls-1" d="M2255.451,3534.918c45.657-2.249,87.651,13.018,120.951-34.575v63.306h-172.243c15.876-24.68,27.004-45.903,41.845-64.099,20.497-25.13,45.099-46.933,65.33-72.249,9.868-12.348,16.642-28.864,19.737-44.498,3.848-19.436-1.741-41.343-24.237-43.496-17.035-1.63-35.775,7.03-52.641,13.864-10.82,4.385-19.613,13.771-31.599,22.598-12.877-31.048-6.507-47.031,20-51.58,22.165-3.804,44.612-6.933,67.044-7.958,24.986-1.141,48.228,6.846,59.553,30.598,12.342,25.885,8.947,52.816-10.303,74.597-28.011,31.694-57.887,61.736-86.826,92.616-4.527,4.831-8.3,10.368-16.611,20.875Z"/><path class="cls-1" d="M365.627,3198.101c-22.753,10.928-39.048,18.755-59.869,28.755-.61-8.236-3.858-19.79-1.216-21.347,31.544-18.581,63.964-35.675,102.429-56.567,0,68.723-.007,128.396,.002,188.069,.007,42.004,.068,41.746,41.646,50.03,6.286,1.252,11.836,6.199,17.726,9.437-.878,2.295-1.755,4.589-2.633,6.884h-154.468c-1.009-2.949-2.019-5.897-3.028-8.846,8.508-3.201,16.855-8.538,25.556-9.198,25.424-1.931,35.673-12.835,34.439-39.657-2.117-46.039-.585-92.245-.585-147.561Z"/><path class="cls-1" d="M902.107,1855.783c.464,10.362,.888,19.823,1.421,31.712h-329.126v-31.712h327.705Z"/><path class="cls-1" d="M574.378,1769.774v-33.05h327.102v33.05h-327.102Z"/><path class="cls-1" d="M1930.114,1828.127v-31.35h328.48c.5,9.865,.98,19.349,1.588,31.35h-330.068Z"/><path class="cls-1" d="M1340.813,3181.282v33.092h-327.101v-33.092h327.101Z"/><path class="cls-1" d="M1014.501,3062.574h325.979v33.388h-325.979v-33.388Z"/><path class="cls-1" d="M3214.086,679.906v-32.464h325.979v32.464h-325.979Z"/><path class="cls-1" d="M3213.905,798.082v-32.088h325.965v32.088h-325.965Z"/><path class="cls-1" d="M2435.118,2957.697c-22.588,7.291-30.6,1.964-30.065-17.351,.812-29.346,.212-58.731,.212-91.448-31.362,0-59.638,.954-87.767-.663-7.132-.41-13.793-9.008-20.67-13.844,1.54-3.063,3.081-6.127,4.622-9.191h102.495v-110.754c10.681-.801,18.618-1.396,30.699-2.301v112.014h101.061c8.473,16.598,6.259,24.999-12.859,24.808-28.287-.282-56.579-.073-87.729-.073v108.802Z"/><path class="cls-1" d="M1907.276,2843.796c-.586,10.733-.997,18.249-1.488,27.247h-223.1v-27.247h224.588Z"/><path class="cls-1" d="M2422.769,3008.756c-34.475,0-68.968,.571-103.41-.492-6.749-.208-13.303-6.749-19.947-10.369,6.715-4.534,13.374-12.908,20.155-13.007,66.966-.983,133.956-.9,200.927-.119,6.685,.078,13.293,6.766,19.937,10.386-6.715,4.534-13.275,12.689-20.172,12.984-32.446,1.387-64.984,.618-97.489,.617Z"/><path class="cls-1" d="M522.121,3358.915h28.242c10.763,45.551-1.025,71.143-50.069,101.428,7.694-35.753,14.519-67.465,21.827-101.428Z"/></svg>