<svg id="Layer_1" data-name="Layer 1" xmlns="http://www.w3.org/2000/svg" viewBox="0 0 100 29"><defs><style>.cls-1{fill:#fff;}</style></defs><path class="cls-1" d="M18.59,28.16H9.33q-4.74,0-7-1.9C.76,25,0,23.05,0,20.42V8.62C0,6,.76,4,2.3,2.76S6.17.84,9.33.84h9.26a1.4,1.4,0,0,1,1,.33,1.39,1.39,0,0,1,.32,1V6.8a1.39,1.39,0,0,1-.32,1,1.39,1.39,0,0,1-1,.32H11a2.66,2.66,0,0,0-1.74.48,1.75,1.75,0,0,0-.57,1.42v9a1.63,1.63,0,0,0,.57,1.38,2.79,2.79,0,0,0,1.74.44h7.63a1.44,1.44,0,0,1,1,.32A1.44,1.44,0,0,1,20,22.28v4.51a1.17,1.17,0,0,1-1.36,1.37Z"/><path class="cls-1" d="M38.09,28.16H31.94a1.17,1.17,0,0,1-1.36-1.37V21.94l-5.81-7.78a7.69,7.69,0,0,1-1.15-2.05,8.94,8.94,0,0,1-.29-2.62V2.21a1.44,1.44,0,0,1,.32-1A1.44,1.44,0,0,1,24.7.84h5.84a1.4,1.4,0,0,1,1,.33,1.39,1.39,0,0,1,.32,1V8.43c0,.25,0,.52,0,.8a1.62,1.62,0,0,0,.31.79L34,12.76a1.59,1.59,0,0,0,.4.49.85.85,0,0,0,.51.15h.38a.85.85,0,0,0,.51-.15,1.59,1.59,0,0,0,.4-.49L37.94,10a1.71,1.71,0,0,0,.3-.79c0-.28,0-.55,0-.8V2.21a1.39,1.39,0,0,1,.32-1,1.41,1.41,0,0,1,1-.33H45.3a1.41,1.41,0,0,1,1,.33,1.44,1.44,0,0,1,.32,1V9.49a8.55,8.55,0,0,1-.3,2.62,8.56,8.56,0,0,1-1.14,2.05L39.45,22v4.82a1.17,1.17,0,0,1-1.36,1.37Z"/><path class="cls-1" d="M58.23,28.16H52.35A1.17,1.17,0,0,1,51,26.79V2.21a1.39,1.39,0,0,1,.32-1,1.4,1.4,0,0,1,1-.33H64c3.44,0,5.79.69,7.06,2.05a7.59,7.59,0,0,1,1.89,5.35V13.1A7.59,7.59,0,0,1,71,18.45q-1.9,2-7.06,2H59.6v6.3a1.18,1.18,0,0,1-1.37,1.37ZM59.52,7.94v5.73h3.42a1.56,1.56,0,0,0,1.44-.57,2.44,2.44,0,0,0,.34-1.29v-2a2.44,2.44,0,0,0-.34-1.29,1.56,1.56,0,0,0-1.44-.57Z"/><path class="cls-1" d="M100,21a9.27,9.27,0,0,1-.51,3.16,5.3,5.3,0,0,1-1.82,2.43,9.85,9.85,0,0,1-3.61,1.58,24.72,24.72,0,0,1-5.82.57,25,25,0,0,1-5.84-.57,9.76,9.76,0,0,1-3.62-1.58A5.25,5.25,0,0,1,77,24.15,9.27,9.27,0,0,1,76.44,21V8.05A9.37,9.37,0,0,1,77,4.88a5.33,5.33,0,0,1,1.83-2.44A9.44,9.44,0,0,1,82.4.84,25,25,0,0,1,88.24.27a24.72,24.72,0,0,1,5.82.57,9.53,9.53,0,0,1,3.61,1.6,5.38,5.38,0,0,1,1.82,2.44A9.37,9.37,0,0,1,100,8.05Zm-15-1.37a1.63,1.63,0,0,0,.57,1.27,4.36,4.36,0,0,0,2.62.51,4.38,4.38,0,0,0,2.62-.51,1.63,1.63,0,0,0,.57-1.27V9.42a1.63,1.63,0,0,0-.57-1.24,4.38,4.38,0,0,0-2.62-.51,4.36,4.36,0,0,0-2.62.51,1.63,1.63,0,0,0-.57,1.24Z"/></svg>