<?xml version="1.0" encoding="UTF-8"?><svg id="Layer_1" xmlns="http://www.w3.org/2000/svg" viewBox="0 0 48 48"><defs><style>.cls-1{fill:#fff;}</style></defs><path class="cls-1" d="M4.8,48c-.68,0-1.25-.23-1.71-.69-.46-.46-.69-1.03-.69-1.71v-13.14c0-1,.35-1.85,1.05-2.55,.7-.7,1.55-1.05,2.55-1.05h1.62v-10.92c0-1,.35-1.85,1.05-2.55,.7-.7,1.55-1.05,2.55-1.05h10.98v-3.84c-.8-.56-1.41-1.17-1.83-1.83-.42-.66-.63-1.45-.63-2.37,0-.6,.11-1.17,.33-1.71,.22-.54,.53-1.01,.93-1.41l3-3.18,3,3.18c.4,.4,.72,.87,.96,1.41,.24,.54,.36,1.11,.36,1.71,0,.92-.22,1.71-.66,2.37-.44,.66-1.06,1.27-1.86,1.83v3.84h10.98c1,0,1.85,.35,2.55,1.05s1.05,1.55,1.05,2.55v10.92h1.62c1,0,1.85,.35,2.55,1.05,.7,.7,1.05,1.55,1.05,2.55v13.14c0,.68-.23,1.25-.69,1.71-.46,.46-1.03,.69-1.71,.69H4.8Zm6.42-19.14h25.56v-10.92H11.22v10.92Zm-5.22,15.54H42v-11.94H6v11.94Zm5.22-15.54h0Zm-5.22,15.54h0Zm36-15.54h0Z"/></svg>