<?xml version="1.0" standalone="no"?>
<!DOCTYPE svg PUBLIC "-//W3C//DTD SVG 20010904//EN"
 "http://www.w3.org/TR/2001/REC-SVG-20010904/DTD/svg10.dtd">
<svg version="1.0" xmlns="http://www.w3.org/2000/svg"
 width="512.000000pt" height="512.000000pt" viewBox="0 0 512.000000 512.000000"
 preserveAspectRatio="xMidYMid meet">

<g transform="translate(0.000000,512.000000) scale(0.100000,-0.100000)"
fill="#000000" stroke="none">
<path d="M1015 5114 c-120 -26 -196 -66 -267 -142 -52 -56 -79 -103 -102 -181
-14 -50 -16 -259 -16 -2231 0 -2365 -3 -2215 52 -2324 46 -91 168 -188 273
-217 75 -21 3135 -21 3210 0 105 29 227 126 273 217 55 109 52 -41 52 2324 0
2364 3 2215 -52 2323 -43 86 -155 179 -256 215 -43 15 -178 17 -1597 18 -852
1 -1559 0 -1570 -2z m2825 -767 c19 -7 44 -27 57 -46 22 -33 23 -40 23 -293 0
-227 -2 -264 -17 -289 -37 -62 40 -59 -1323 -59 -1363 0 -1286 -3 -1323 59
-15 25 -17 62 -17 289 0 253 1 260 23 293 13 19 38 39 57 46 50 17 2470 17
2520 0z m-2134 -1273 c63 -46 69 -64 72 -209 3 -117 1 -139 -17 -179 -35 -79
-55 -86 -271 -86 -207 0 -229 6 -270 72 -19 30 -20 47 -18 185 3 169 10 187
78 225 31 17 54 18 217 16 165 -3 184 -5 209 -24z m1064 6 c66 -34 80 -74 80
-232 0 -151 -11 -186 -69 -225 -32 -22 -43 -23 -221 -23 -178 0 -189 1 -221
23 -58 39 -69 74 -69 225 0 156 14 198 78 231 33 18 58 20 210 21 154 0 177
-2 212 -20z m1070 1 c68 -36 75 -55 78 -224 2 -138 1 -155 -18 -185 -41 -66
-63 -72 -270 -72 -168 0 -188 2 -218 20 -55 34 -72 85 -72 227 0 128 7 163 43
202 41 44 71 50 252 51 147 0 175 -3 205 -19z m-2132 -971 c59 -36 74 -89 70
-245 -3 -148 -10 -166 -78 -212 -31 -22 -43 -23 -209 -23 -194 0 -224 7 -265
63 -19 25 -21 45 -24 180 -2 138 -1 155 18 185 41 66 63 72 270 72 168 0 188
-2 218 -20z m1073 -3 c58 -39 69 -74 69 -227 0 -121 -3 -139 -23 -174 -39 -68
-66 -76 -267 -76 -201 0 -228 8 -267 76 -20 35 -23 53 -23 174 0 153 11 188
69 227 32 22 43 23 221 23 178 0 189 -1 221 -23z m1067 3 c65 -40 73 -67 70
-237 -3 -135 -5 -155 -24 -180 -41 -56 -71 -63 -265 -63 -166 0 -178 1 -209
23 -68 46 -75 64 -78 212 -3 117 -1 139 17 179 35 79 55 86 271 86 167 0 188
-2 218 -20z m-2142 -966 c63 -47 69 -63 72 -213 4 -160 -5 -192 -64 -237 l-37
-29 -186 0 c-203 0 -222 4 -266 63 -18 24 -20 45 -23 177 -3 176 6 204 79 243
42 22 52 23 221 20 160 -3 179 -5 204 -24z m2134 3 c72 -38 81 -66 78 -242 -3
-165 -9 -183 -73 -222 -28 -17 -69 -18 -752 -18 -713 0 -722 0 -749 21 -62 46
-69 65 -72 201 -2 69 -1 141 3 160 8 43 58 100 99 112 17 5 340 10 727 10
l696 1 43 -23z"/>
</g>
</svg>
