<?xml version="1.0" encoding="UTF-8"?><svg id="Layer_1" xmlns="http://www.w3.org/2000/svg" viewBox="0 0 48 48"><defs><style>.cls-1{fill:#fff;}</style></defs><path class="cls-1" d="M1.636,43.636c-.473,0-.864-.155-1.173-.464s-.464-.7-.464-1.173,.155-.864,.464-1.173,.7-.464,1.173-.464H46.364c.473,0,.864,.155,1.173,.464s.464,.7,.464,1.173-.155,.864-.464,1.173-.7,.464-1.173,.464H1.636Zm3.818-6.545c-.873,0-1.636-.327-2.291-.982-.655-.655-.982-1.418-.982-2.291V7.636c0-.873,.327-1.636,.982-2.291,.655-.655,1.418-.982,2.291-.982H42.545c.873,0,1.636,.327,2.291,.982,.655,.655,.982,1.418,.982,2.291v26.182c0,.873-.327,1.636-.982,2.291-.655,.655-1.418,.982-2.291,.982H5.455Zm0-3.273H42.545V7.636H5.455v26.182Zm0,0v0Z"/></svg>