<?xml version="1.0" encoding="UTF-8"?><svg id="Layer_1" xmlns="http://www.w3.org/2000/svg" viewBox="0 0 132.004 132"><defs><style>.cls-1{fill:#fff;}</style></defs><path class="cls-1" d="M66.006-.005C48.08-.005,45.83,.073,38.79,.394c-7.027,.322-11.823,1.434-16.02,3.066-4.341,1.686-8.024,3.941-11.693,7.611-3.672,3.669-5.927,7.351-7.618,11.691C1.823,26.961,.709,31.758,.392,38.782,.078,45.823-.005,48.074-.005,66s.08,20.169,.399,27.209c.323,7.027,1.436,11.823,3.066,16.02,1.687,4.341,3.942,8.024,7.613,11.693,3.667,3.672,7.35,5.932,11.688,7.618,4.2,1.632,8.997,2.745,16.023,3.066,7.041,.32,9.289,.399,27.213,.399s20.17-.078,27.211-.399c7.027-.322,11.829-1.434,16.028-3.066,4.34-1.686,8.017-3.947,11.684-7.618,3.672-3.669,5.927-7.351,7.618-11.691,1.623-4.198,2.736-8.996,3.066-16.02,.316-7.041,.399-9.285,.399-27.211s-.083-20.176-.399-27.216c-.33-7.027-1.444-11.823-3.066-16.02-1.691-4.341-3.947-8.024-7.618-11.693-3.672-3.672-7.343-5.927-11.688-7.611-4.208-1.632-9.007-2.745-16.034-3.066C86.158,.073,83.916-.005,65.985-.005h.021Zm-5.921,11.895c1.757-.003,3.718,0,5.921,0,17.623,0,19.712,.063,26.672,.38,6.436,.294,9.928,1.37,12.255,2.273,3.08,1.196,5.276,2.626,7.585,4.937,2.31,2.31,3.74,4.51,4.939,7.591,.903,2.324,1.98,5.817,2.273,12.252,.316,6.958,.385,9.048,.385,26.663s-.069,19.705-.385,26.663c-.294,6.436-1.37,9.928-2.273,12.252-1.196,3.08-2.629,5.274-4.939,7.582-2.31,2.31-4.503,3.74-7.585,4.937-2.324,.908-5.819,1.98-12.255,2.274-6.958,.316-9.048,.385-26.672,.385s-19.714-.069-26.672-.385c-6.436-.297-9.928-1.372-12.256-2.276-3.08-1.196-5.28-2.626-7.591-4.937-2.31-2.31-3.74-4.505-4.939-7.586-.903-2.324-1.98-5.817-2.273-12.252-.316-6.958-.38-9.048-.38-26.674s.063-19.705,.38-26.663c.294-6.436,1.37-9.928,2.273-12.255,1.196-3.08,2.629-5.28,4.939-7.591,2.31-2.31,4.51-3.74,7.591-4.939,2.327-.908,5.821-1.98,12.256-2.276,6.089-.275,8.449-.358,20.75-.371v.017Zm41.154,10.96c-4.373,0-7.921,3.544-7.921,7.918s3.548,7.921,7.921,7.921,7.921-3.548,7.921-7.921-3.548-7.921-7.921-7.921v.003Zm-35.233,9.254c-18.719,0-33.896,15.177-33.896,33.896s15.177,33.89,33.896,33.89c18.719,0,33.891-15.17,33.891-33.89s-15.173-33.896-33.892-33.896h.001Zm0,11.895c12.15,0,22.002,9.85,22.002,22.002s-9.851,22.002-22.002,22.002-22.002-9.851-22.002-22.002,9.85-22.002,22.002-22.002Z"/></svg>