<?xml version="1.0" encoding="UTF-8"?>
<svg id="Layer_1" data-name="Layer 1" xmlns="http://www.w3.org/2000/svg" viewBox="0 0 1200 500">
  <defs>
    <style>
      .cls-1 {
        fill: #fff;
      }
    </style>
  </defs>
  <path class="cls-1" d="M263.13,239.88h-12.05c-4.82,49.16-11.57,108.92-96.39,108.92h-39.04c-22.65,0-23.61-3.37-23.61-19.28V73.61c0-16.39,0-23.13,45.3-23.13h15.9v-14.46c-17.35,1.45-60.72,1.45-80.48,1.45S16.39,37.47,0,36.02v14.46H11.08c37.11,0,38.07,5.3,38.07,22.65v253.01c0,17.35-.96,22.65-38.07,22.65H0v14.94H250.12l13.01-123.86Z"/>
  <path class="cls-1" d="M254.94,35.54c-1.93-5.78-2.89-7.71-9.16-7.71s-7.71,1.93-9.64,7.71l-77.59,196.63c-3.37,8.19-9.16,23.13-39.04,23.13v12.05h74.7v-12.05c-14.94,0-24.1-6.75-24.1-16.39,0-2.41,.48-3.37,1.45-6.75l16.39-41.45h95.42l19.28,49.16c.96,1.93,1.93,4.34,1.93,5.78,0,9.64-18.31,9.64-27.47,9.64v12.05h94.94v-12.05h-6.75c-22.65,0-25.06-3.37-28.43-13.01L254.94,35.54h0Zm-19.28,34.22l42.89,108.92h-85.78l42.89-108.92Z"/>
  <path class="cls-1" d="M640.96,38.92H347.47l-8.67,107.95h11.57c6.75-77.59,13.98-93.49,86.75-93.49,8.67,0,21.2,0,26.02,.96,10.12,1.93,10.12,7.23,10.12,18.31v253.01c0,16.39,0,23.13-50.6,23.13h-19.28v14.94c19.76-1.45,68.43-1.45,90.6-1.45s71.81,0,91.57,1.45v-14.94h-19.28c-50.6,0-50.6-6.75-50.6-23.13V72.65c0-9.64,0-16.39,8.67-18.31,5.3-.96,18.31-.96,27.47-.96,72.29,0,79.52,15.9,86.27,93.49h12.05l-9.16-107.95h0Z"/>
  <path class="cls-1" d="M899.28,348.31h-12.05c-12.05,73.73-23.13,108.92-105.54,108.92h-63.61c-22.65,0-23.61-3.37-23.61-19.28v-128.19h42.89c46.75,0,52.05,15.42,52.05,56.39h12.05v-127.23h-12.05c0,40.96-5.3,55.9-52.05,55.9h-42.89v-115.18c0-15.9,.96-19.28,23.61-19.28h61.69c73.73,0,86.27,26.51,93.98,93.49h12.05l-13.49-107.95h-269.88v14.46h11.08c37.11,0,38.07,5.3,38.07,22.65v251.57c0,17.35-.96,22.65-38.07,22.65h-11.08v14.94h276.63l20.24-123.86Z"/>
  <path class="cls-1" d="M1044.34,178.19l66.02-96.39c10.12-15.42,26.51-30.84,69.4-31.33v-14.46h-114.7v14.46c19.28,.48,29.88,11.08,29.88,22.17,0,4.82-.96,5.78-4.34,11.08l-54.94,80.96-61.69-92.53c-.96-1.45-3.37-5.3-3.37-7.23,0-5.78,10.6-13.98,30.84-14.46v-14.46c-16.39,1.45-51.57,1.45-69.88,1.45-14.94,0-44.82-.48-62.65-1.45v14.46h9.16c26.51,0,35.66,3.37,44.82,16.87l88.19,133.49-78.55,116.14c-6.75,9.64-21.2,31.81-69.4,31.81v14.94h114.7v-14.94c-22.17-.48-30.36-13.49-30.36-22.17,0-4.34,1.45-6.27,4.82-11.57l67.95-100.72,76.14,114.7c.96,1.93,2.41,3.86,2.41,5.3,0,5.78-10.6,13.98-31.33,14.46v14.94c16.87-1.45,52.05-1.45,69.88-1.45,20.24,0,42.41,.48,62.65,1.45v-14.94h-9.16c-25.06,0-35.18-2.41-45.3-17.35l-101.2-153.25h0Z"/>
</svg>