<?xml version="1.0" encoding="UTF-8"?><svg id="Layer_1" xmlns="http://www.w3.org/2000/svg" viewBox="0 0 48 48"><defs><style>.cls-1{fill:#fff;}</style></defs><path class="cls-1" d="M20.4,48V31.2h-4.8v-15.18c0-1,.35-1.85,1.05-2.55,.7-.7,1.55-1.05,2.55-1.05h9.6c1,0,1.85,.35,2.55,1.05,.7,.7,1.05,1.55,1.05,2.55v15.18h-4.8v16.8h-7.2Zm3.6-39.24c-1.2,0-2.23-.43-3.09-1.29-.86-.86-1.29-1.89-1.29-3.09s.43-2.23,1.29-3.09,1.89-1.29,3.09-1.29,2.23,.43,3.09,1.29c.86,.86,1.29,1.89,1.29,3.09s-.43,2.23-1.29,3.09c-.86,.86-1.89,1.29-3.09,1.29Z"/></svg>