<?xml version="1.0" standalone="no"?>
<!DOCTYPE svg PUBLIC "-//W3C//DTD SVG 20010904//EN"
 "http://www.w3.org/TR/2001/REC-SVG-20010904/DTD/svg10.dtd">
<svg version="1.0" xmlns="http://www.w3.org/2000/svg"
 width="512.000000pt" height="512.000000pt" viewBox="0 0 512.000000 512.000000"
 preserveAspectRatio="xMidYMid meet">

<g transform="translate(0.000000,512.000000) scale(0.100000,-0.100000)"
fill="#000000" stroke="none">
<path d="M121 4344 l-21 -27 0 -1757 0 -1757 21 -27 20 -26 2419 0 2419 0 20
26 21 27 0 1757 0 1757 -21 27 -20 26 -2419 0 -2419 0 -20 -26z m4739 -1784
l0 -1660 -2300 0 -2300 0 0 1660 0 1660 2300 0 2300 0 0 -1660z"/>
<path d="M1985 3731 c-70 -17 -115 -67 -115 -127 0 -71 79 -84 110 -17 16 35
32 46 55 37 33 -13 13 -47 -69 -126 -87 -82 -109 -117 -95 -155 13 -35 41 -43
156 -43 124 0 153 11 153 60 0 38 -32 60 -87 60 l-42 0 54 51 c78 73 93 137
49 204 -30 45 -107 71 -169 56z"/>
<path d="M4295 3725 c-57 -20 -95 -66 -95 -114 0 -78 77 -95 110 -24 16 35 32
46 55 37 32 -13 13 -47 -69 -125 -87 -83 -109 -119 -95 -156 13 -35 41 -43
156 -43 124 0 153 11 153 60 0 38 -32 60 -86 60 l-42 0 57 58 c71 70 82 109
52 176 -30 69 -116 100 -196 71z"/>
<path d="M993 3218 c-16 -17 -44 -117 -112 -398 -50 -207 -91 -380 -91 -385 0
-4 -33 24 -74 63 -63 62 -79 72 -109 72 -54 0 -90 -54 -71 -104 3 -8 64 -69
135 -136 103 -96 134 -120 158 -120 62 0 64 4 173 458 l103 422 427 0 c234 0
434 3 443 6 24 10 46 60 39 89 -14 56 -8 55 -524 55 l-477 0 -20 -22z"/>
<path d="M3351 3221 c-23 -23 -17 0 -122 -436 -45 -187 -83 -342 -85 -344 -2
-2 -35 26 -75 63 -59 54 -77 66 -105 66 -45 0 -74 -30 -74 -74 0 -31 13 -47
132 -160 114 -109 136 -126 165 -126 56 0 67 22 118 231 25 107 71 296 101
422 l56 227 432 0 433 0 21 23 c28 30 29 80 2 107 -19 19 -33 20 -500 20 -462
0 -481 -1 -499 -19z"/>
<path d="M2404 2966 c-15 -11 -20 -30 -24 -88 l-5 -73 -72 -5 c-84 -6 -107
-22 -107 -75 0 -53 23 -69 107 -75 l72 -5 5 -71 c6 -85 19 -104 70 -104 57 0
80 34 80 116 l0 64 68 0 c59 0 72 3 90 23 31 33 29 80 -4 106 -21 16 -41 21
-90 21 l-64 0 0 64 c0 49 -5 69 -21 90 -23 30 -72 35 -105 12z"/>
<path d="M1265 2865 c-44 -43 -34 -70 57 -162 l82 -82 -82 -85 c-66 -67 -82
-89 -82 -114 0 -45 30 -76 74 -76 33 0 46 9 119 82 l81 81 87 -84 c56 -55 94
-85 108 -85 13 0 36 14 53 30 43 43 33 69 -63 165 l-79 80 79 79 c44 44 82 90
86 103 6 27 -17 78 -40 87 -45 17 -68 6 -151 -76 l-84 -82 -84 82 c-93 91
-119 100 -161 57z"/>
<path d="M3685 2865 c-46 -45 -38 -64 109 -230 19 -22 35 -43 36 -46 0 -4 -25
-46 -55 -94 -73 -116 -72 -167 1 -189 37 -11 68 13 119 92 268 419 273 429
219 471 -53 42 -87 26 -144 -66 -24 -38 -45 -70 -47 -73 -3 -3 -16 9 -30 25
-14 17 -48 54 -75 83 -58 61 -93 68 -133 27z"/>
<path d="M1643 1731 c-105 -53 -199 -102 -207 -110 -22 -19 -21 -84 2 -103 9
-9 104 -59 209 -112 l193 -96 850 0 c921 0 890 -2 948 53 50 46 62 88 62 207
0 119 -12 161 -62 207 -58 55 -27 53 -950 52 l-853 -2 -192 -96z m1637 -161
l0 -110 -665 0 -665 0 0 110 0 110 665 0 665 0 0 -110z m248 94 c19 -13 22
-24 22 -91 0 -94 -13 -113 -77 -113 l-43 0 0 103 c0 57 3 107 7 110 12 13 68
7 91 -9z m-1740 -123 l-3 -30 -60 28 -60 28 60 31 60 30 3 -29 c2 -16 2 -42 0
-58z"/>
</g>
</svg>
