<?xml version="1.0" standalone="no"?>
<!DOCTYPE svg PUBLIC "-//W3C//DTD SVG 20010904//EN"
 "http://www.w3.org/TR/2001/REC-SVG-20010904/DTD/svg10.dtd">
<svg version="1.0" xmlns="http://www.w3.org/2000/svg"
 width="512.000000pt" height="512.000000pt" viewBox="0 0 512.000000 512.000000"
 preserveAspectRatio="xMidYMid meet">

<g transform="translate(0.000000,512.000000) scale(0.100000,-0.100000)"
fill="#000000" stroke="none">
<path d="M2729 4289 c-167 -100 -441 -260 -609 -356 -1195 -687 -1985 -1145
-2003 -1162 -16 -16 -17 -55 -17 -596 0 -454 2 -582 12 -591 27 -26 1608 -934
1626 -934 20 0 818 451 880 497 36 27 42 61 14 86 -10 10 -28 17 -40 17 -12 0
-209 -107 -438 -239 l-416 -238 -201 117 c-111 64 -438 253 -727 420 -289 166
-542 313 -562 326 l-38 24 0 110 c0 61 3 110 6 110 3 0 345 -196 760 -436 568
-328 758 -434 774 -429 26 8 849 483 873 503 47 41 -4 118 -61 93 -15 -7 -206
-116 -424 -242 -361 -209 -400 -229 -420 -218 -13 7 -295 169 -628 362 -333
192 -667 385 -743 429 l-137 80 0 115 0 115 33 -19 c647 -379 1480 -853 1498
-852 13 0 218 113 454 252 411 241 430 253 433 283 4 36 -19 64 -51 64 -12 0
-206 -108 -431 -239 l-409 -238 -161 93 c-88 51 -432 250 -763 441 l-603 348
0 123 0 124 33 -20 c17 -11 352 -205 742 -431 614 -355 716 -411 751 -411 31
0 63 13 140 58 54 33 324 189 599 349 456 264 503 290 537 285 33 -4 39 -1 56
28 15 24 76 65 238 160 l219 127 5 -119 c4 -103 8 -122 24 -134 28 -20 56 -17
81 6 20 18 23 19 35 5 7 -8 23 -15 36 -15 13 0 210 108 439 240 228 132 422
243 430 247 14 5 15 -10 13 -108 l-3 -113 -253 -146 c-140 -80 -258 -154 -264
-164 -23 -42 24 -96 69 -79 10 4 114 62 232 130 117 68 215 123 217 123 2 0 4
-51 4 -113 l0 -114 -152 -89 c-118 -69 -155 -95 -162 -116 -12 -34 14 -68 52
-68 25 0 321 166 355 199 16 16 18 55 19 594 1 542 0 579 -17 597 -10 11 -24
20 -32 20 -8 0 -90 43 -181 97 -756 437 -1360 788 -1377 799 -11 8 -29 14 -40
14 -12 0 -158 -81 -326 -181z m1043 -362 c392 -227 721 -418 731 -424 16 -8
-57 -54 -443 -278 l-463 -269 -51 28 c-62 34 -91 54 -85 61 3 2 117 70 253
150 137 81 259 153 272 162 33 21 33 72 -1 101 -32 28 -32 53 0 90 29 35 32
73 8 94 -10 9 -202 122 -428 253 l-410 237 -45 -10 c-32 -7 -57 -7 -86 0 l-41
11 -354 -206 -354 -205 -65 35 c-36 20 -68 38 -72 42 -4 3 71 50 165 104 95
54 298 174 452 267 154 92 285 169 292 169 7 1 333 -185 725 -412z m-271 -130
l352 -205 1 -89 1 -90 -258 -151 -259 -152 -473 272 -474 273 82 47 c45 26
181 105 302 175 l220 128 77 -2 77 -2 352 -204z m-824 -447 c356 -205 681
-393 721 -418 l74 -45 -39 -24 c-118 -73 -401 -233 -411 -233 -12 0 -58 26
-872 495 -250 144 -486 279 -523 300 -37 20 -67 41 -65 46 6 16 433 258 450
254 10 -1 309 -170 665 -375z m-1100 -36 c-1 -1 -175 -101 -387 -223 -212
-122 -393 -231 -403 -242 -23 -28 -22 -42 8 -77 32 -38 32 -59 -2 -94 -53 -55
-52 -56 422 -331 401 -232 432 -248 465 -242 44 9 66 9 110 0 33 -6 67 12 499
264 l464 270 47 -27 c25 -15 57 -34 69 -42 23 -15 5 -26 -548 -348 -315 -183
-576 -333 -581 -335 -9 -2 -1460 835 -1460 843 0 3 258 154 573 337 l572 332
77 -42 c42 -23 76 -42 75 -43z m3013 -43 l0 -118 -447 -258 c-247 -142 -458
-268 -471 -279 l-23 -20 3 129 3 130 460 267 c253 147 463 268 468 268 4 0 7
-53 7 -119z m-2431 -292 c251 -144 460 -265 464 -269 5 -4 -178 -115 -405
-246 l-413 -239 -75 1 -75 1 -367 213 c-364 211 -367 213 -357 239 6 14 9 49
7 78 l-3 52 370 215 c204 117 376 214 384 215 8 1 220 -117 470 -260z"/>
<path d="M3046 3779 c-124 -18 -214 -103 -203 -192 25 -193 437 -227 526 -43
25 50 26 65 7 110 -39 94 -177 146 -330 125z m187 -137 c40 -23 41 -48 4 -76
-39 -29 -198 -31 -240 -3 -54 35 -45 65 29 93 51 19 164 12 207 -14z"/>
<path d="M1595 2910 c-124 -26 -195 -90 -195 -175 0 -107 108 -177 275 -178
97 -1 164 20 213 66 93 87 58 217 -72 266 -61 23 -166 33 -221 21z m158 -121
c136 -37 57 -128 -101 -117 -68 5 -126 28 -136 55 -7 17 31 51 69 62 42 13
123 13 168 0z"/>
<path d="M3225 2386 c-130 -21 -205 -44 -291 -86 -91 -45 -147 -98 -163 -157
-15 -53 -15 -1184 0 -1237 32 -116 223 -214 482 -246 133 -17 426 -8 527 16
95 23 135 23 240 -1 71 -17 121 -20 310 -20 193 1 238 4 315 22 227 53 355
137 376 245 12 65 11 785 -2 832 -24 88 -150 174 -314 215 -130 32 -219 42
-381 42 l-154 0 0 66 c0 111 -54 176 -198 240 -118 52 -248 74 -467 78 -137 3
-225 0 -280 -9z m470 -121 c182 -28 329 -89 349 -147 8 -23 6 -32 -15 -54 -46
-50 -149 -91 -304 -121 -136 -26 -407 -23 -543 6 -161 34 -282 92 -295 141
-17 64 141 143 348 176 112 17 341 17 460 -1z m-645 -408 c295 -84 708 -67
937 38 30 14 57 25 59 25 2 0 4 -51 4 -113 0 -111 -1 -114 -27 -139 -189 -177
-888 -179 -1109 -3 -29 23 -29 24 -32 145 l-4 121 59 -29 c32 -16 83 -36 113
-45z m1516 18 c180 -31 324 -98 332 -154 15 -101 -347 -204 -645 -184 l-83 6
0 173 0 174 154 0 c92 0 189 -6 242 -15z m-1660 -345 c16 -16 145 -61 234 -82
125 -29 417 -36 568 -14 124 19 222 46 295 82 l48 25 -3 -123 -3 -122 -42 -32
c-110 -84 -396 -133 -656 -113 -226 17 -416 82 -455 156 -13 24 -17 233 -4
233 4 0 12 -4 18 -10z m1992 -117 l-3 -117 -41 -31 c-91 -70 -302 -115 -536
-115 l-148 0 0 136 0 137 78 -7 c168 -14 437 25 569 82 37 17 72 30 76 31 4 1
6 -52 5 -116z m-1923 -302 c131 -56 254 -75 485 -76 132 0 232 5 280 14 89 16
220 56 273 82 l37 19 0 -105 c0 -59 -5 -115 -10 -125 -21 -40 -142 -94 -280
-126 -89 -21 -383 -30 -491 -15 -167 22 -291 65 -350 120 l-39 38 0 108 c0 82
3 106 13 102 6 -3 44 -19 82 -36z m1903 -208 c-31 -33 -115 -71 -227 -101 -90
-24 -111 -26 -328 -26 -127 -1 -235 3 -239 7 -5 4 4 18 18 30 48 39 68 86 68
155 l0 62 149 0 c221 0 387 28 516 88 l60 28 3 -109 c2 -102 1 -112 -20 -134z"/>
</g>
</svg>
