<?xml version="1.0" encoding="UTF-8"?>
<svg id="Layer_1" data-name="Layer 1" xmlns="http://www.w3.org/2000/svg" viewBox="0 0 48 48">
  <defs>
    <style>
      .cls-1 {
        fill: #fff;
      }
    </style>
  </defs>
  <g>
    <polygon class="cls-1" points="8.13 33.66 8.13 34.96 11.02 36.55 8.13 33.66"/>
    <path class="cls-1" d="M5.15,18.61c.75-.75,1.65-1.31,2.63-1.65L23.95,8.24l6.04,3.24,2.48-2.48-8.51-4.63L0,17.46l4.09,2.22,1.07-1.07Z"/>
    <path class="cls-1" d="M36.49,26.9v6.1l-12.54,6.93s-.31-.17-.32-.18c-1.02,.93-2.26,1.52-3.61,1.73l3.93,2.16h0s15.82-8.67,15.82-8.67v-11.34l-3.27,3.27Z"/>
    <path class="cls-1" d="M45.77,16.24c-.3,1.17-.9,2.28-1.81,3.2l-.64,.64,1.42-.72v15.38h3.27V17.46l-2.23-1.22Z"/>
  </g>
  <path class="cls-1" d="M18.01,35.52l-9.95-9.95c-.51-.51-.51-1.34,0-1.84l1.1-1.1c.51-.51,1.34-.51,1.84,0l7,7c.51,.51,1.34,.51,1.84,0L37,12.48c.51-.51,1.34-.51,1.84,0l1.1,1.1c.51,.51,.51,1.34,0,1.84l-20.09,20.09c-.51,.51-1.34,.51-1.84,0Z"/>
</svg>