<?xml version="1.0" standalone="no"?>
<!DOCTYPE svg PUBLIC "-//W3C//DTD SVG 20010904//EN"
 "http://www.w3.org/TR/2001/REC-SVG-20010904/DTD/svg10.dtd">
<svg version="1.0" xmlns="http://www.w3.org/2000/svg"
 width="512.000000pt" height="512.000000pt" viewBox="0 0 512.000000 512.000000"
 preserveAspectRatio="xMidYMid meet">

<g transform="translate(0.000000,512.000000) scale(0.100000,-0.100000)"
fill="#000000" stroke="none">
<path d="M501 5105 c-110 -24 -226 -89 -311 -175 -250 -250 -252 -649 -5 -895
122 -121 256 -183 419 -192 292 -16 560 170 649 452 31 99 31 271 0 370 -101
318 -428 510 -752 440z m290 -346 c67 -36 98 -68 137 -143 22 -43 26 -64 26
-136 1 -78 -2 -90 -33 -148 -38 -70 -70 -100 -145 -140 -43 -22 -64 -26 -136
-26 -72 0 -93 4 -136 26 -75 40 -107 70 -145 140 -31 58 -34 70 -33 148 0 100
24 160 89 225 100 100 249 121 376 54z"/>
<path d="M1576 5098 c-22 -13 -49 -39 -60 -58 -21 -34 -21 -49 -24 -722 l-3
-687 -687 -3 c-673 -3 -688 -3 -722 -24 -52 -30 -82 -88 -77 -147 5 -54 27
-91 77 -124 l33 -23 688 0 689 0 0 -750 0 -750 -689 0 -688 0 -33 -22 c-48
-33 -72 -70 -77 -120 -7 -58 23 -118 74 -149 l38 -24 687 -3 687 -3 3 -687 3
-687 24 -38 c31 -51 91 -81 149 -74 50 5 87 29 120 77 l22 33 0 688 0 689 750
0 750 0 0 -689 0 -688 23 -33 c32 -48 69 -72 119 -77 58 -7 118 23 149 74 l24
38 3 687 3 687 687 3 687 3 38 24 c51 31 81 91 74 149 -5 50 -29 87 -77 120
l-33 22 -688 0 -689 0 0 750 0 750 689 0 688 0 33 23 c48 32 72 69 77 119 7
58 -23 118 -74 149 l-38 24 -687 3 -687 3 -3 687 -3 687 -24 38 c-31 51 -91
81 -149 74 -50 -5 -87 -29 -119 -77 l-23 -33 0 -688 0 -689 -750 0 -750 0 0
689 0 688 -22 33 c-53 77 -139 100 -212 58z m1729 -2538 l0 -745 -745 0 -745
0 -3 735 c-1 404 0 741 3 748 3 10 158 12 747 10 l743 -3 0 -745z"/>
<path d="M2421 3185 c-110 -24 -226 -89 -311 -175 -250 -250 -252 -649 -5
-895 122 -121 256 -183 419 -192 292 -16 560 170 649 452 31 99 31 271 0 370
-101 318 -428 510 -752 440z m290 -346 c67 -36 98 -68 137 -143 22 -43 26 -64
26 -136 1 -78 -2 -90 -33 -148 -38 -70 -70 -100 -145 -140 -43 -22 -64 -26
-136 -26 -72 0 -93 4 -136 26 -75 40 -107 70 -145 140 -31 58 -34 70 -33 148
0 100 24 160 89 225 100 100 249 121 376 54z"/>
<path d="M3947 4896 c-49 -18 -64 -32 -88 -77 -45 -89 -25 -131 145 -299 75
-74 136 -139 136 -144 0 -6 -65 -76 -144 -156 -155 -156 -167 -175 -151 -257
9 -49 69 -109 118 -118 82 -16 101 -4 257 151 80 79 150 144 156 144 5 0 70
-61 144 -136 169 -170 210 -190 300 -144 68 35 100 107 79 183 -9 34 -37 68
-155 187 l-143 145 143 145 c119 119 146 153 155 188 31 115 -76 222 -191 191
-35 -9 -69 -36 -188 -155 l-146 -144 -134 136 c-74 74 -146 141 -160 149 -41
22 -92 26 -133 11z"/>
<path d="M3935 1266 c-41 -18 -83 -69 -91 -111 -15 -79 -2 -100 152 -255 79
-80 144 -150 144 -156 0 -5 -61 -70 -136 -144 -170 -169 -190 -210 -144 -300
35 -68 107 -100 183 -79 34 9 68 36 187 155 l145 143 145 -143 c119 -118 153
-146 188 -155 115 -31 222 76 191 191 -9 35 -36 69 -155 188 l-143 145 143
145 c119 119 146 153 155 187 21 76 -11 148 -79 183 -90 46 -131 26 -300 -144
-74 -75 -139 -136 -145 -136 -6 0 -71 61 -145 136 -74 75 -149 142 -167 150
-40 17 -89 17 -128 0z"/>
</g>
</svg>
