<?xml version="1.0" encoding="UTF-8"?>
<svg id="Layer_1" data-name="Layer 1" xmlns="http://www.w3.org/2000/svg" viewBox="0 0 1000 1000">
  <defs>
    <style>
      .cls-1 {
        fill: #fff;
      }
    </style>
  </defs>
  <path class="cls-1" d="M847.98,184.56c-65.21-29.67-134.65-51.51-206.71-63.58-9.13,15.65-19.24,36.84-26.41,53.47-76.94-11.08-153.24-11.08-228.88,0-7.17-16.63-17.61-37.82-26.41-53.47-72.71,12.06-141.82,33.91-206.7,63.58C22.13,377.57-13.41,566.02,4.2,752.19c87.05,63.25,170.84,101.4,253.33,126.83,20.21-27.39,38.47-56.73,54.12-87.38-29.67-11.08-58.04-24.78-85.42-41.08,7.17-4.89,14.02-10.43,20.86-15.98,164.65,75.31,342.99,75.31,505.68,0,7.17,5.54,13.7,11.09,20.87,15.98-27.39,16.3-55.75,30-85.42,41.08,15.65,30.65,33.91,59.99,54.12,87.38,82.16-25.43,166.6-63.58,253-126.83,21.85-215.18-34.23-402.33-147.36-567.63h0ZM334.47,637.42c-49.56,0-89.99-44.99-89.99-100.09s39.45-100.09,89.99-100.09,90.96,44.99,89.99,100.09c0,55.1-40.11,100.09-89.99,100.09Zm331.91,0c-49.56,0-89.99-44.99-89.99-100.09s39.45-100.09,89.99-100.09,90.96,44.99,89.99,100.09c0,55.1-39.45,100.09-89.99,100.09Z"/>
</svg>