<?xml version="1.0" encoding="UTF-8"?>
<svg id="Layer_1" data-name="Layer 1" xmlns="http://www.w3.org/2000/svg" viewBox="0 0 1000 1000">
  <defs>
    <style>
      .cls-1 {
        fill: #fff;
      }
    </style>
  </defs>
  <path class="cls-1" d="M459.62,1.5C245.48,20.96,67.8,171.11,14.77,377.21,2.91,423.75,0,448.14,0,501.4,0,536.53,1.12,556.45,4.03,575.24c28.42,182.6,149.03,331.18,322.45,397.64,20.14,7.61,70.04,21.48,87.94,24.17l9.4,1.57v-383.09h-116.36v-136.5h115.69l1.34-65.56c.9-49.23,2.01-69.59,4.92-82.12,11.64-51.91,41.84-91.97,85.03-112.11,31.1-14.55,39.16-15.89,96.22-17.01,28.42-.67,60.87-.45,72.28,.45l20.59,1.57v124.42l-48.56,.9c-31.78,.67-51.47,2.24-56.61,4.03-12.08,4.48-21.93,12.75-27.52,23.05-4.7,8.95-4.92,12.31-5.59,64.67l-.67,55.49h132.7l-1.34,7.16c-.67,4.03-4.25,31.1-8.06,59.97-3.58,28.87-7.38,56.39-8.06,60.87l-1.34,8.5h-118.15v385.56l12.98-1.57c17.45-2.01,58.4-11.41,78.77-17.9,85.48-27.52,160.89-76.31,219.97-142.09,66.68-74.07,107.19-160.67,123.74-263.15,5.59-34.24,5.59-108.75,.22-144.33-31.1-201.17-176.33-362.73-371.91-413.97-35.13-9.17-70.04-13.65-113-14.32-22.82-.45-45.87-.45-51.47,0Z"/>
</svg>