<?xml version="1.0" encoding="UTF-8"?>
<svg id="Layer_1" data-name="Layer 1" xmlns="http://www.w3.org/2000/svg" viewBox="0 0 1000 1000">
  <defs>
    <style>
      .cls-1 {
        fill: #fff;
      }
    </style>
  </defs>
  <path class="cls-1" d="M500.05,0C364.26,0,347.21,.58,293.88,3.01c-53.23,2.44-89.56,10.86-121.36,23.23-32.88,12.77-60.78,29.85-88.58,57.66-27.82,27.79-44.9,55.69-57.71,88.56-12.39,31.81-20.83,68.15-23.23,121.36C.63,347.15,0,364.21,0,500s.61,152.79,3.02,206.12c2.45,53.23,10.88,89.56,23.23,121.36,12.78,32.88,29.86,60.78,57.67,88.58,27.78,27.82,55.68,44.94,88.54,57.71,31.82,12.36,68.15,20.79,121.38,23.23,53.34,2.42,70.37,3.02,206.15,3.02s152.79-.59,206.13-3.02c53.23-2.44,89.61-10.86,121.42-23.23,32.88-12.77,60.73-29.9,88.51-57.71,27.82-27.79,44.9-55.69,57.71-88.56,12.29-31.8,20.73-68.15,23.23-121.36,2.39-53.34,3.02-70.34,3.02-206.13s-.63-152.84-3.02-206.17c-2.5-53.23-10.94-89.56-23.23-121.36-12.81-32.88-29.9-60.78-57.71-88.58-27.82-27.82-55.63-44.9-88.54-57.66-31.88-12.36-68.23-20.79-121.46-23.23C652.71,.58,635.73,0,499.89,0c0,0,.16,0,.16,0Zm-44.85,90.11c13.31-.02,28.16,0,44.85,0,133.5,0,149.32,.48,202.05,2.88,48.75,2.23,75.21,10.38,92.84,17.22,23.33,9.06,39.97,19.89,57.46,37.4,17.5,17.5,28.33,34.16,37.41,57.5,6.84,17.6,15,44.07,17.22,92.81,2.39,52.71,2.92,68.54,2.92,201.98s-.52,149.27-2.92,201.98c-2.23,48.75-10.38,75.21-17.22,92.81-9.06,23.33-19.92,39.95-37.41,57.44-17.5,17.5-34.11,28.33-57.46,37.4-17.6,6.88-44.08,15-92.84,17.23-52.71,2.39-68.54,2.92-202.05,2.92s-149.34-.52-202.05-2.92c-48.75-2.25-75.21-10.39-92.84-17.24-23.33-9.06-40-19.89-57.5-37.4-17.5-17.5-28.33-34.13-37.41-57.47-6.84-17.6-15-44.07-17.22-92.81-2.39-52.71-2.88-68.54-2.88-202.06s.48-149.27,2.88-201.98c2.23-48.75,10.38-75.21,17.22-92.84,9.06-23.33,19.92-40,37.41-57.5,17.5-17.5,34.16-28.33,57.5-37.41,17.63-6.88,44.1-15,92.84-17.24,46.13-2.08,64-2.71,157.19-2.81v.13h0Zm311.75,83.02c-33.13,0-60,26.85-60,59.98s26.88,60,60,60,60-26.88,60-60-26.88-60-60-60c0,0,0,.02,0,.02Zm-266.9,70.1c-141.8,0-256.77,114.97-256.77,256.77s114.97,256.73,256.77,256.73,256.73-114.92,256.73-256.73-114.94-256.77-256.74-256.77h0Zm0,90.11c92.04,0,166.67,74.62,166.67,166.67s-74.62,166.67-166.67,166.67-166.67-74.62-166.67-166.67,74.62-166.67,166.67-166.67Z"/>
</svg>