<?xml version="1.0" encoding="UTF-8"?>
<svg id="Layer_1" data-name="Layer 1" xmlns="http://www.w3.org/2000/svg" viewBox="0 0 1000 1000">
  <path d="M134.13,52.01L1.74,104.61l-.72,395.39L-.05,895.39l135.26,52.96,134.9,52.6,115.22-44.73,115.22-45.09,115.58,45.09,115.58,44.73,134.18-52.96,134.18-52.6V104.61l-134.18-52.6L731.69-.95l-115.22,45.09-115.58,45.09-111.64-44.01C327.71,21.24,274.75,1.2,271.89,.48c-2.86-.36-64.77,22.9-137.76,51.53Zm307.01,56.89l59.76,23.62v162.81c0,153.15-.36,162.45-6.08,160.3-3.58-1.43-55.1-21.11-114.5-44.37l-108.42-41.86V42.71l54.75,21.47c29.7,11.81,81.23,31.85,114.5,44.73Zm408.27-20.75l113.07,44.37v162.45c0,89.1-1.07,162.09-2.5,162.09-1.79,0-53.67-20.04-115.58-44.37l-112.71-44.37-1.07-163.52c-.36-91.96,.72-162.81,2.5-162.09,1.43,.36,54.03,21.11,116.29,45.44ZM392.48,459.21c55.82,21.47,101.26,39.72,101.26,40.79s-50.09,21.47-111.64,45.44l-111.64,43.65-111.64-43.65c-61.54-23.97-110.92-44.73-109.49-46.16,1.43-1.43,51.53-21.47,111.64-45.09,100.55-39.36,109.85-42.22,119.87-38.29,6.08,2.15,56.18,21.83,111.64,43.3Zm455.5-2.15c56.18,21.83,103.05,40.79,104.48,42.22s-47.59,22.18-109.14,46.16l-111.64,43.65-111.64-43.65c-61.54-23.97-110.57-44.73-109.14-46.16,1.43-1.43,51.53-21.83,111.64-45.09,78.72-30.77,111.28-41.86,116.29-40.08,3.94,1.79,52.96,20.75,109.14,42.94ZM162.75,589.45l107.35,42.22,1.07,163.17,.72,163.17-9.66-3.94c-5.73-1.79-57.97-22.18-116.29-45.09l-106.63-41.51v-324.9l8.23,2.5c4.29,1.43,56.18,21.47,115.22,44.37Zm458.72-.72l108.42,41.86v326.69l-54.39-21.11c-30.06-11.81-81.58-31.85-114.5-44.73l-60.11-23.62v-162.81c0-153.5,.36-162.81,6.44-160.66,3.22,1.43,54.75,21.11,114.14,44.37Z"/>
</svg>