<?xml version="1.0" encoding="UTF-8"?><svg id="Layer_1" xmlns="http://www.w3.org/2000/svg" viewBox="0 0 2000 2000"><defs><style>.cls-1{fill:#fff;}</style></defs><path class="cls-1" d="M1543.313,604.727c-2.823,53.69-5.693,102.759-7.904,151.858-2.224,49.387,7.281,55.99,54.869,39.359,35.659-12.462,70.876-26.464,107.113-36.935,53.055-15.331,92.238-3.315,108.174,30.076,17.759,37.212,5.954,73.667-40.54,107.495-50.439,36.699-103.725,69.46-155.11,104.894-51.056,35.207-57.775,54.42-38.814,114.524,44.646,141.529,136.232,248.386,254.213,333.545,46.225,33.366,98.091,58.853,146.713,89.016,11.411,7.079,28.795,19.455,27.944,27.819-1.232,12.111-14.318,27.628-26.297,33.198-41.534,19.311-84.581,35.46-127.46,51.741-17.125,6.502-35.344,10.093-53.004,15.219-40.777,11.837-64.71,37.983-66.881,81.263-1.745,34.782-20.054,51.675-53.966,54.333-56.067,4.395-112.203,8.276-168.108,14.259-74.821,8.007-141.516,38.082-204.441,78.193-71.25,45.418-146.023,81.416-231.808,91.612-115.848,13.769-224.06-5.905-324.608-65.696-68.484-40.725-134.799-86.743-216.21-98.487-47.51-6.853-95.414-11.033-143.179-16.046-21.346-2.24-42.792-3.509-64.183-5.333-27.817-2.372-43.887-18.473-45.026-45.363-2.276-53.734-32.74-78.844-81.393-93.147-52.718-15.498-104.06-35.853-155.47-55.482-11.998-4.581-25.369-12.682-31.559-23.066-4.811-8.071-3.589-25.705,2.4-32.821,8.615-10.238,23.811-15.139,36.513-21.709,156.857-81.121,285.339-191.321,361.042-354.711,11.932-25.753,19.989-53.523,27.678-80.965,10.044-35.845-2.029-63.87-33.516-84.347-47.186-30.687-94.318-61.511-140.463-93.723-19.957-13.931-39.095-29.906-55.548-47.767-20.441-22.191-22.984-49.491-11.122-77.362,12.191-28.643,37.737-40.656,64.91-36.095,42.899,7.201,85.615,18.566,126.652,33.118,79.889,28.329,83.054,25.671,77.476-57.305-7.287-108.396-11.961-217.532,10.974-324.554,36.03-168.124,138.464-285.386,297.148-345.208C990.453-22.784,1199.822-.709,1383.185,156.085c93.485,79.939,141.172,186.51,151.686,308.973,4.113,47.909,5.87,96.02,8.442,139.668Z"/></svg>