<?xml version="1.0" encoding="UTF-8"?>
<svg id="Layer_1" data-name="Layer 1" xmlns="http://www.w3.org/2000/svg" viewBox="0 0 1000 1000">
  <defs>
    <style>
      .cls-1 {
        fill: #fff;
      }
    </style>
  </defs>
  <path class="cls-1" d="M771.27,301.25c-1.41,26.89-2.85,51.47-3.96,76.06-1.11,24.74,3.65,28.04,27.48,19.71,17.86-6.24,35.5-13.25,53.65-18.5,26.57-7.68,46.2-1.66,54.18,15.06,8.89,18.64,2.98,36.9-20.3,53.84-25.26,18.38-51.95,34.79-77.69,52.54-25.57,17.63-28.94,27.26-19.44,57.36,22.36,70.89,68.23,124.41,127.32,167.06,23.15,16.71,49.13,29.48,73.48,44.58,5.72,3.55,14.42,9.74,14,13.93-.62,6.07-7.17,13.84-13.17,16.63-20.8,9.67-42.36,17.76-63.84,25.91-8.58,3.26-17.7,5.06-26.55,7.62-20.42,5.93-32.41,19.02-33.5,40.7-.87,17.42-10.04,25.88-27.03,27.21-28.08,2.2-56.2,4.15-84.2,7.14-37.47,4.01-70.88,19.07-102.4,39.16-35.69,22.75-73.14,40.78-116.1,45.88-58.02,6.9-112.22-2.96-162.58-32.9-34.3-20.4-67.51-43.45-108.29-49.33-23.8-3.43-47.79-5.53-71.71-8.04-10.69-1.12-21.43-1.76-32.15-2.67-13.93-1.19-21.98-9.25-22.55-22.72-1.14-26.91-16.4-39.49-40.77-46.65-26.4-7.76-52.12-17.96-77.87-27.79-6.01-2.29-12.71-6.35-15.81-11.55-2.41-4.04-1.8-12.87,1.2-16.44,4.31-5.13,11.93-7.58,18.29-10.87,78.56-40.63,142.91-95.82,180.83-177.66,5.98-12.9,10.01-26.81,13.86-40.55,5.03-17.95-1.02-31.99-16.79-42.25-23.63-15.37-47.24-30.81-70.35-46.94-10-6.98-19.58-14.98-27.82-23.92-10.24-11.11-11.51-24.79-5.57-38.75,6.11-14.35,18.9-20.36,32.51-18.08,21.49,3.61,42.88,9.3,63.43,16.59,40.01,14.19,41.6,12.86,38.8-28.7-3.65-54.29-5.99-108.95,5.5-162.55,18.05-84.21,69.35-142.94,148.83-172.9C494.36-13.04,599.23-1.99,691.06,76.54c46.82,40.04,70.71,93.41,75.97,154.75,2.06,24,2.94,48.09,4.23,69.95h0Z"/>
</svg>