<?xml version="1.0" encoding="UTF-8"?>
<svg id="Layer_1" data-name="Layer 1" xmlns="http://www.w3.org/2000/svg" viewBox="0 0 1000 1000">
  <defs>
    <style>
      .cls-1 {
        fill: #fff;
      }
    </style>
  </defs>
  <path class="cls-1" d="M500,1.49C226.19,1.49,0,224.7,0,498.51s226.19,500,500,500,500-226.19,500-500S773.81,1.49,500,1.49Zm184.52,729.17c-116.07-71.43-264.88-89.29-437.5-50.6-41.67,5.95-47.62-53.57-11.9-59.52,190.48-44.64,351.19-23.81,482.14,56.55,32.74,20.83,0,71.43-32.74,53.57h0Zm50.6-133.93c-133.93-83.33-339.29-107.14-497.02-59.52-50.6,14.88-68.45-62.5-20.83-74.4,181.55-53.57,404.76-26.79,559.52,68.45,41.67,26.79,0,92.26-41.67,65.48h0Zm59.52-154.76c-160.71-95.24-428.57-104.17-580.36-56.55-50.6,17.86-83.33-68.45-26.79-89.29,175.6-53.57,473.21-44.64,657.74,65.48,50.59,26.79,2.98,110.12-50.59,80.36h0Z"/>
</svg>