<?xml version="1.0" encoding="UTF-8"?><svg id="Layer_1" xmlns="http://www.w3.org/2000/svg" viewBox="0 0 2000 2000"><defs><style>.cls-1{fill:#fff;}</style></defs><path class="cls-1" d="M1000,2.976C452.381,2.976,0,449.405,0,997.024s452.381,1000,1000,1000,1000-452.381,1000-1000S1547.619,2.976,1000,2.976Zm369.048,1458.333c-232.143-142.857-529.762-178.571-875-101.19-83.333,11.905-95.238-107.143-23.81-119.048,380.952-89.286,702.381-47.619,964.286,113.095,65.476,41.667,0,142.857-65.476,107.143Zm101.19-267.857c-267.857-166.667-678.571-214.286-994.048-119.048-101.19,29.762-136.905-125-41.667-148.81,363.095-107.143,809.524-53.571,1119.048,136.905,83.333,53.571,0,184.524-83.333,130.952Zm119.048-309.524c-321.429-190.476-857.143-208.333-1160.714-113.095-101.19,35.714-166.667-136.905-53.571-178.571,351.19-107.143,946.429-89.286,1315.476,130.952,101.19,53.571,5.952,220.238-101.19,160.714Z"/></svg>