<?xml version="1.0" standalone="no"?>
<!DOCTYPE svg PUBLIC "-//W3C//DTD SVG 20010904//EN"
 "http://www.w3.org/TR/2001/REC-SVG-20010904/DTD/svg10.dtd">
<svg version="1.0" xmlns="http://www.w3.org/2000/svg"
 width="512.000000pt" height="512.000000pt" viewBox="0 0 512.000000 512.000000"
 preserveAspectRatio="xMidYMid meet">

<g transform="translate(0.000000,512.000000) scale(0.100000,-0.100000)"
fill="#000000" stroke="none">
<path d="M1292 5109 c-45 -13 -108 -79 -121 -126 -6 -21 -11 -88 -11 -150 l0
-112 -513 -3 -513 -3 -41 -27 c-62 -41 -88 -90 -88 -168 0 -78 26 -127 88
-168 l41 -27 530 -3 531 -4 34 -71 c48 -100 158 -210 261 -261 100 -49 188
-66 343 -66 l127 0 0 -127 c0 -155 17 -243 66 -343 51 -104 161 -214 262 -261
l73 -34 -3 -110 c-4 -127 -20 -166 -91 -213 l-41 -27 -690 -5 c-680 -5 -692
-6 -756 -27 -144 -49 -280 -162 -348 -290 -175 -330 -10 -735 348 -855 62 -21
85 -23 556 -28 l491 -5 40 -27 c62 -41 88 -90 88 -168 0 -78 -26 -127 -88
-168 l-40 -27 -267 -5 -267 -5 -40 -27 c-62 -41 -88 -90 -88 -168 0 -78 26
-127 88 -168 l40 -27 267 -5 267 -5 40 -27 c62 -41 88 -90 88 -168 0 -78 -26
-127 -88 -168 l-40 -27 -267 -5 -267 -5 -40 -27 c-62 -41 -88 -90 -88 -168 0
-78 26 -127 88 -168 l40 -27 260 -3 c297 -4 357 4 480 65 91 46 208 160 255
250 107 204 90 449 -43 634 l-35 49 35 49 c103 144 138 326 95 495 -51 201
-201 361 -400 428 -62 21 -85 23 -556 28 l-491 5 -40 27 c-62 41 -88 90 -88
168 0 78 26 127 88 168 l41 27 690 5 c680 5 692 6 756 27 96 33 185 90 254
163 116 123 166 259 167 454 l0 111 72 34 c100 47 210 158 261 261 49 100 66
188 66 343 l0 127 128 0 c154 0 242 17 342 66 103 51 213 161 261 261 l34 71
530 4 530 3 38 24 c21 13 50 42 65 64 22 34 27 52 27 106 0 79 -25 128 -88
169 l-41 27 -512 3 -512 3 -4 133 c-3 124 -5 135 -30 173 -15 22 -44 51 -65
64 l-38 24 -1250 2 c-771 1 -1263 -2 -1283 -8z m2266 -522 c-3 -125 -5 -136
-30 -174 -15 -22 -44 -51 -65 -64 l-38 -24 -866 0 -865 0 -41 27 c-22 15 -51
44 -64 65 -22 34 -24 52 -27 171 l-4 132 1002 0 1002 0 -4 -133z m-800 -799
c-3 -119 -5 -137 -27 -171 -13 -21 -42 -50 -64 -65 -34 -23 -52 -27 -107 -27
-55 0 -73 4 -107 27 -22 15 -51 44 -64 65 -22 34 -24 52 -27 171 l-4 132 202
0 202 0 -4 -132z"/>
<path d="M2892 1989 c-46 -13 -109 -79 -122 -128 -7 -27 -10 -305 -8 -883 l3
-843 24 -38 c13 -21 42 -50 64 -65 l40 -27 260 -3 c297 -4 357 4 480 65 91 46
208 160 255 250 69 131 72 162 72 683 0 521 -3 552 -72 683 -42 81 -164 203
-245 245 -118 62 -185 72 -467 71 -138 0 -266 -5 -284 -10z m571 -418 c21 -13
50 -42 65 -64 l27 -41 0 -465 0 -466 -24 -38 c-13 -21 -42 -50 -64 -65 -38
-25 -49 -27 -174 -30 l-133 -4 0 602 0 602 133 -4 c118 -3 136 -5 170 -27z"/>
</g>
</svg>
