<?xml version="1.0" encoding="UTF-8"?><svg id="Layer_1" xmlns="http://www.w3.org/2000/svg" viewBox="0 0 48 48"><defs><style>.cls-1{fill:#fff;}</style></defs><path class="cls-1" d="M25.8,38.45L9.55,22.2c-.6-.667-.9-1.433-.9-2.3s.3-1.633,.9-2.3l8.3-8.25c.6-.667,1.35-1,2.25-1s1.683,.333,2.35,1l16.25,16.25c.633,.633,.95,1.4,.95,2.3s-.317,1.667-.95,2.3l-8.3,8.25c-.6,.667-1.35,1-2.25,1s-1.683-.333-2.35-1Zm2.3-1.95l8.6-8.6L20.15,11.3l-8.6,8.6,16.55,16.6Zm-4.2,11.55c-3.3,0-6.4-.625-9.3-1.875-2.9-1.25-5.433-2.967-7.6-5.15-2.167-2.183-3.875-4.725-5.125-7.625-1.25-2.9-1.875-6-1.875-9.3H3c0,2.667,.475,5.192,1.425,7.575,.95,2.383,2.258,4.5,3.925,6.35,1.667,1.85,3.642,3.358,5.925,4.525,2.283,1.167,4.742,1.883,7.375,2.15l-6.5-6.5,2.15-2.15,11.4,11.4c-.767,.233-1.558,.392-2.375,.475-.817,.083-1.625,.125-2.425,.125Zm21.1-23.95c0-2.667-.467-5.192-1.4-7.575-.933-2.383-2.225-4.508-3.875-6.375-1.65-1.867-3.608-3.392-5.875-4.575-2.267-1.183-4.717-1.908-7.35-2.175l6.4,6.4-2.15,2.15L19.35,.55c.767-.2,1.525-.342,2.275-.425,.75-.083,1.508-.125,2.275-.125,3.333,0,6.458,.633,9.375,1.9,2.917,1.267,5.467,2.992,7.65,5.175,2.183,2.183,3.908,4.733,5.175,7.65,1.267,2.917,1.9,6.042,1.9,9.375h-3Z"/></svg>