<?xml version="1.0" encoding="UTF-8"?><svg id="Layer_1" xmlns="http://www.w3.org/2000/svg" viewBox="0 0 4000 4000"><defs><style>.cls-1{fill:#fff;}</style></defs><g><path class="cls-1" d="M2000,4000c-134.887-.448-269.304-13.097-402.969-29.394-125.81-15.339-252.335-30.103-375.549-59.384-116.107-27.592-231.228-63.389-339.766-112.746-106.844-48.587-207.523-111.32-295.928-188.492-95.964-83.771-177.108-183.996-244.162-292.303-77.161-124.633-136.879-260.498-184.416-399.219-51.879-151.389-90.029-308.277-116.577-466.119C15.548,2303.204-.06,2151.141,0,2000c.048-118.865,10.605-238.644,40.631-353.595,25.987-99.49,66.826-194.91,116.577-284.982,53.95-97.673,117.734-190.645,184.416-280.314,76.772-103.237,158.748-203.305,244.162-299.552,93.146-104.959,191.488-206.213,295.928-299.832,105.604-94.662,218.663-182.433,339.766-256.085,117.899-71.704,242.812-135.666,375.549-173.77C1727.602,14.387,1864.122,.005,2000,0c134.434-.004,269.305,13.097,402.969,29.394,125.819,15.341,252.327,30.1,375.551,59.384,116.107,27.592,231.227,63.388,339.766,112.746,106.843,48.587,207.521,111.319,295.927,188.492,95.963,83.77,177.107,183.994,244.162,292.303,77.161,124.633,136.878,260.497,184.416,399.219,51.878,151.389,90.029,308.277,116.577,466.12,25.083,149.137,40.692,301.201,40.631,452.341-.048,118.865-10.606,238.646-40.631,353.594-25.988,99.49-66.826,194.909-116.577,284.981-53.949,97.673-117.733,190.645-184.416,280.315-76.772,103.237-158.748,203.305-244.162,299.552-93.146,104.959-191.488,206.214-295.927,299.832-105.603,94.661-218.663,182.433-339.766,256.085-117.9,71.704-242.812,135.667-375.551,173.771-130.574,37.483-266.634,51.407-402.969,51.869Zm0-3809.523c-222.947,28.726-435.704,102.592-623.357,227.352-83.505,55.518-168.996,107.179-248.567,168.547-81.072,62.526-157.636,130.808-230.259,202.94-138.157,137.223-263.428,288.18-373.597,448.724-99.449,144.924-187.31,299.54-246.347,465.561-61.965,174.257-87.542,358.064-87.397,542.592,.152,192.418,32.738,385.67,87.473,569.863,54.327,182.82,133.135,360.854,246.825,514.8,99.692,134.992,226.65,246.939,373.991,327.417,72.321,39.501,148.536,71.561,226.632,97.729,79.974,26.798,164.113,53.279,248.456,59.371,207.872,15.016,419.141,20.829,626.145-5.849,195.74-25.227,385.523-84.737,556.1-185.216,45.554-26.834,88.062-58.235,133.297-85.448,42.518-25.578,83.924-52.994,124.254-81.894,81.755-58.584,159.044-123.277,232.383-192.067,143.479-134.581,273.053-284.499,388.187-443.924,104.182-144.261,197.809-298.037,264.654-463.366,77.765-192.338,110.551-396.966,110.651-603.802,.105-218.444-41.504-439.378-111.687-645.949-59.841-176.133-144.176-346.24-262.889-490.363-105.845-128.501-238.431-231.231-388.138-303.777-76.081-36.868-155.651-66.236-236.759-89.938-41.117-12.016-82.656-22.583-124.461-31.921-41.875-9.354-86.473-9.294-129.255-11.789-185.124-10.797-372.067-13.211-556.335,10.408Z"/><path class="cls-1" d="M2952.38,813.833c.488,75.768-18.792,153.537-55.789,220.381-29.563,53.414-74.134,107.825-134.687,125.745-50.685,15-102.78-9.59-134.663-49.851-44.962-56.777-55.409-135.888-55.813-205.5-.485-83.709,17.834-170.313,55.789-245.761,27.728-55.12,69.593-105.29,134.687-112.13,137.278-14.425,189.804,162.792,190.476,267.116Z"/><path class="cls-1" d="M2000,3428.571c-155.369,53.655-318.339,83.646-481.951,88.025-67.375,1.803-146.812,7.408-210.344-16.785-63.914-24.338-126.041-55.179-183.168-92.673-55.112-36.171-106.424-79.164-151.127-127.583-44.447-48.141-83.084-102.375-114.169-160.055-64.197-119.12-96.723-253.062-97.335-388.962-.221-48.95,53.033-72.587,95.238-72.572,43.947,.015,95.226,25.767,95.238,75.699,.044,175.832,66.343,346.568,193.636,469.651,30.285,29.283,63.435,55.549,98.64,78.668,35.395,23.244,72.87,47.457,114.866,55.164,90.792,16.661,184.549,15.287,275.874,3.815,125.963-15.823,248.821-51.896,364.603-102.869,242.867-106.922,446.972-285.361,608.543-494.775,77.598-100.574,157.197-200.303,221.277-310.332,64.865-111.379,116.79-230.469,153.629-353.999,41.719-139.891,63.677-286.141,64.169-431.702,.175-51.651,36.835-115.631,95.238-114.777,58.888,.861,95.657,64.634,95.238,117.903-1.535,195.316-33.084,390.359-97.335,574.941-31.145,89.472-69.629,177.013-114.169,260.635-44.224,83.028-94.965,163.292-151.126,238.755-55.333,74.352-116.677,145.035-183.168,209.578-71.228,69.141-135.239,146.006-210.345,211.552-141.61,123.586-303.988,219.552-481.951,282.696Z"/><path class="cls-1" d="M1428.573,1571.583c.049,112.122-16.889,226.937-55.789,333.197-23.625,64.535-61.793,151.97-134.687,173.356-65.478,19.21-111.158-46.089-134.687-97.412-45.001-98.16-55.758-212.34-55.789-318.367-.033-114.439,14.306-233.435,55.789-341.528,22.285-58.068,63.153-146.061,134.687-153.262,62.133-6.254,110.606,62.479,134.687,111.027,44.436,89.587,55.746,194.973,55.789,292.988Z"/></g><path class="cls-1" d="M587.77,2809.669c-26.57-9.505-50.627-27.601-67.344-49.493-20.745-27.168-50.432-92.061,0-109.661,50.496-17.622,104.607-25.328,157.582-30.567,59.307-5.866,119.49-8.634,179.136-9.14,59.778-.508,120.3,1.306,179.136,10.209,55.088,8.336,108.959,23.54,157.582,51.439,46.398,26.622,26.111,88.951,0,120.784-29.841,36.381-91.29,59.964-134.687,30.401-58.535-39.875-133.146-52.381-202.031-53.788-67.66-1.382-140.55,6.469-202.031,38.585-20.732,10.83-45.935,8.914-67.344,1.231Z"/><path class="cls-1" d="M3412.232,1873.426c-28.411-10.187-50.261-30.752-67.344-54.557-47.519-66.218-115.552-126.739-202.031-128.7-82.262-1.866-154.004,52.664-202.031,113.497-30.04,38.049-90.831,67.485-134.687,30.401-45.015-38.064-28.442-107.242,0-148.59,41.701-60.622,95.448-116.943,157.581-157.869,53.801-35.438,114.841-59.064,179.136-59.611,64.99-.553,125.315,23.156,179.136,60.679,65.372,45.577,117.778,111.57,157.582,178.74,25.169,42.474,49.185,122.824,0,159.714-19.254,14.441-45.336,14.218-67.343,6.295Z"/></svg>