<?xml version="1.0" standalone="no"?>
<!DOCTYPE svg PUBLIC "-//W3C//DTD SVG 20010904//EN"
 "http://www.w3.org/TR/2001/REC-SVG-20010904/DTD/svg10.dtd">
<svg version="1.0" xmlns="http://www.w3.org/2000/svg"
 width="512.000000pt" height="512.000000pt" viewBox="0 0 512.000000 512.000000"
 preserveAspectRatio="xMidYMid meet">

<g transform="translate(0.000000,512.000000) scale(0.100000,-0.100000)"
fill="#000000" stroke="none">
<path d="M3701 5102 c-43 -21 -70 -57 -81 -108 -5 -21 -10 -272 -10 -556 l0
-517 -542 -3 c-522 -3 -544 -4 -577 -23 -19 -11 -43 -33 -55 -48 -21 -28 -21
-37 -24 -582 l-2 -555 -555 -2 c-545 -3 -554 -3 -582 -24 -15 -12 -37 -36 -48
-55 -19 -33 -20 -55 -23 -576 l-3 -542 -542 -3 c-521 -3 -543 -4 -576 -23 -19
-11 -43 -33 -55 -48 -21 -28 -21 -36 -24 -673 -2 -631 -2 -645 18 -684 13 -26
34 -47 60 -60 39 -20 53 -20 2480 -20 2427 0 2441 0 2480 20 26 13 47 34 60
60 20 39 20 53 20 2480 0 2427 0 2441 -20 2480 -13 26 -34 47 -60 60 -38 19
-58 20 -672 20 -583 0 -636 -1 -667 -18z m1119 -2542 l0 -2260 -2260 0 -2260
0 0 450 0 449 548 3 c542 3 547 3 582 25 19 12 44 37 55 55 19 32 20 54 23
581 l3 547 540 0 c521 0 541 1 579 20 26 13 47 34 60 60 19 38 20 58 20 579
l0 540 548 3 c526 3 548 4 580 23 18 11 43 36 55 55 22 35 22 40 25 583 l3
547 449 0 450 0 0 -2260z"/>
</g>
</svg>
