<?xml version="1.0" encoding="UTF-8"?><svg id="Layer_1" xmlns="http://www.w3.org/2000/svg" viewBox="0 0 2000 2000"><path d="M1183.702,0c11.721,0,23.441,0,35.162,0,9.206,5.901,19.332,10.747,27.481,17.857,182.353,159.1,364.65,318.265,546.262,478.207,10.894,9.594,21.192,25.121,22.931,38.994,10.825,86.361,19.181,173.032,28.251,259.61,8.393,80.116,16.601,160.251,24.988,240.368,8.522,81.407,17.184,162.8,25.744,244.203,8.628,82.048,16.408,164.196,26.199,246.105,3.916,32.762-2.807,58.494-27.24,82.574-118.177,116.468-234.904,234.406-352.567,351.4-14.921,14.837-32.32,27.182-48.571,40.682H246.061c-18.683-10.907-36.078-23.177-40.635-46.228-2.639-13.348-4.258-26.916-5.901-40.438-12.218-100.583-24.175-201.198-36.511-301.766-13.68-111.524-27.748-223-41.513-334.514-12.81-103.777-24.059-207.773-38.794-311.274-6.452-45.317-.539-82.911,26.652-122.277,108.604-157.227,213.351-317.114,320.577-475.303,9.985-14.73,25.554-28.36,41.628-35.872,208.216-97.308,417.03-193.333,625.586-289.915C1126.297,28.916,1154.866,14.169,1183.702,0ZM510.919,465.451c-4.388,6.295-8.156,11.521-11.741,16.869-94.864,141.528-189.482,283.221-284.895,424.378-9.951,14.722-12.564,28.492-10.163,45.483,6.727,47.597,12.341,95.353,18.154,143.076,10.997,90.288,21.758,180.605,32.743,270.894,12.554,103.185,25.201,206.359,37.904,309.526,4.224,34.305,8.746,68.573,13.726,107.507,275.959-363.67,548.932-723.406,823.229-1084.886-208.199-78.323-413.327-155.491-618.957-232.848Zm682.895,349.739c-270.278,356.189-537.676,708.584-806.587,1062.973h1013.613c-68.892-353.726-137.525-706.118-207.026-1062.973Zm318.187,997.182c1.877,.855,3.753,1.71,5.63,2.565,3.89-5.197,7.216-10.957,11.754-15.509,84.088-84.334,167.976-168.874,252.877-252.385,13.384-13.165,15.921-25.78,13.866-43.167-8.082-68.388-15.043-136.91-22.162-205.409-9.671-93.058-19.022-186.149-28.665-279.21-9.977-96.288-20.075-192.564-30.254-288.831-3.856-36.47-8.086-72.901-12.274-110.503-136.164,32.362-269.661,64.09-404.343,96.099,71.445,366.757,142.508,731.553,213.572,1096.35ZM646.384,384.8c4.254,2.562,6.298,4.26,8.65,5.144,188.124,70.716,376.239,141.459,564.538,211.706,7.844,2.926,17.892,3.179,26.138,1.293,80.286-18.363,160.429-37.353,240.565-56.365,45.827-10.872,91.566-22.115,138.371-33.44-1.968-3.383-2.538-5.301-3.81-6.415-140.001-122.531-279.999-245.067-420.396-367.143-3.944-3.429-13.402-4.555-18.251-2.325-177.985,81.834-355.729,164.193-535.804,247.545Z"/></svg>