<?xml version="1.0" encoding="UTF-8"?><svg id="Layer_1" xmlns="http://www.w3.org/2000/svg" viewBox="0 0 48 48"><defs><style>.cls-1{fill:#fff;}</style></defs><path class="cls-1" d="M0,45.009L24,3.591l24,41.417H0Zm2.606-1.509H45.394L24,6.609,2.606,43.5Zm21.463-4.457c.366,0,.651-.114,.857-.343s.309-.503,.309-.823c0-.366-.114-.651-.343-.857-.229-.206-.503-.309-.823-.309s-.594,.114-.823,.343c-.229,.229-.343,.503-.343,.823s.114,.594,.343,.823c.229,.229,.503,.343,.823,.343Zm-.754-5.28h1.509v-14.263h-1.509v14.263Z"/></svg>