<?xml version="1.0" encoding="UTF-8"?><svg id="Layer_1" xmlns="http://www.w3.org/2000/svg" viewBox="0 0 48 48"><defs><style>.cls-1{fill:#fff;}</style></defs><path class="cls-1" d="M24,8.76c-1.2,0-2.23-.43-3.09-1.29-.86-.86-1.29-1.89-1.29-3.09s.43-2.23,1.29-3.09,1.89-1.29,3.09-1.29,2.23,.43,3.09,1.29c.86,.86,1.29,1.89,1.29,3.09s-.43,2.23-1.29,3.09c-.86,.86-1.89,1.29-3.09,1.29Zm-6.42,39.24V16.02c-2.72-.2-5.35-.48-7.89-.84s-4.97-.82-7.29-1.38l.9-3.6c3.4,.8,6.78,1.37,10.14,1.71,3.36,.34,6.88,.51,10.56,.51,3.68,0,7.2-.17,10.56-.51,3.36-.34,6.74-.91,10.14-1.71l.9,3.6c-2.32,.56-4.75,1.02-7.29,1.38-2.54,.36-5.17,.64-7.89,.84v31.98h-3.6v-15.6h-5.64v15.6h-3.6Z"/></svg>