<?xml version="1.0" encoding="UTF-8"?>
<svg id="Layer_1" data-name="Layer 1" xmlns="http://www.w3.org/2000/svg" viewBox="0 0 1000 1000">
  <defs>
    <style>
      .cls-1 {
        fill-rule: evenodd;
      }
    </style>
  </defs>
  <path class="cls-1" d="M499.97,12.35C223.88,12.35,0,236.2,0,512.38c0,220.89,143.25,408.29,341.96,474.42,25,4.59,34.13-10.85,34.13-24.1,0-11.87-.43-43.31-.68-85.04-139.08,30.22-168.43-67.02-168.43-67.02-22.74-57.76-55.51-73.14-55.51-73.14-45.4-31.02,3.43-30.39,3.43-30.39,50.18,3.54,76.59,51.53,76.59,51.53,44.6,76.41,117.02,54.34,145.51,41.54,4.54-32.31,17.46-54.34,31.74-66.84-111.03-12.62-227.75-55.51-227.75-247.12,0-54.58,19.48-99.22,51.47-134.17-5.14-12.65-22.3-63.49,4.9-132.32,0,0,41.98-13.44,137.5,51.26,39.88-11.09,82.65-16.64,125.18-16.83,42.46,.19,85.24,5.74,125.18,16.83,95.46-64.7,137.36-51.26,137.36-51.26,27.28,68.84,10.12,119.68,4.98,132.32,32.04,34.95,51.4,79.59,51.4,134.17,0,192.08-116.9,234.35-228.29,246.73,17.95,15.44,33.95,45.95,33.95,92.59,0,66.84-.61,120.77-.61,137.16,0,13.37,9.01,28.93,34.38,24.04,198.51-66.25,341.64-253.53,341.64-474.36,0-276.17-223.89-500.03-500.03-500.03h0Z"/>
</svg>