<?xml version="1.0" encoding="UTF-8"?>
<svg id="Layer_1" data-name="Layer 1" xmlns="http://www.w3.org/2000/svg" viewBox="0 0 1000 1000">
  <defs>
    <style>
      .cls-1 {
        fill: #fff;
      }
    </style>
  </defs>
  <path class="cls-1" d="M75,900c-20,0-37.5-7.5-52.5-22.5C7.5,862.5,0,845,0,825V175C0,155,7.5,137.5,22.5,122.5c15-15,32.5-22.5,52.5-22.5H925c20,0,37.5,7.5,52.5,22.5,15,15,22.5,32.5,22.5,52.5V825c0,20-7.5,37.5-22.5,52.5-15,15-32.5,22.5-52.5,22.5H75Zm425-377.5L75,243.75V825H925V243.75s-425,278.75-425,278.75Zm0-75L920,175H81.25L500,447.5ZM75,243.75"/>
</svg>