<?xml version="1.0" encoding="UTF-8"?>
<svg id="Layer_1" data-name="Layer 1" xmlns="http://www.w3.org/2000/svg" viewBox="0 0 1000 1000">
  <defs>
    <style>
      .cls-1 {
        fill: #eb6f40;
      }
    </style>
  </defs>
  <path class="cls-1" d="M504.29,.03c-2.1-1.14-50.57,25.95-174.61,97.52-94.27,54.39-172.32,99.81-173.09,100.57-.95,.95,76.14,46.56,171.18,101.52l172.7,99.61v200.18c0,110.11-.38,200.18-.76,200.18s-77.48-44.27-171.18-98.47c-93.89-54.2-171.75-99.04-172.89-99.42-1.91-.76-2.48,39.69-2.48,198.66,0,113.55,.76,199.61,1.72,199.61s78.43-44.27,172.13-98.47c93.89-54.2,191.21-110.49,216.4-125,25.19-14.5,103.81-59.73,174.61-100.76l128.81-74.23V198.12l-169.84-98.28C583.68,45.83,505.82,.99,504.29,.03Z"/>
</svg>